<?xml version="1.0" encoding="UTF-8" standalone="no"?>
<!DOCTYPE svg PUBLIC "-//W3C//DTD SVG 1.1//EN"
 "http://www.w3.org/Graphics/SVG/1.1/DTD/svg11.dtd">
<!-- Generated by graphviz version 2.47.0 (20210316.0004)
 -->
<!-- Title: dependencies Pages: 1 -->
<svg width="1128pt" height="279pt"
 viewBox="0.00 0.00 1128.00 279.00" xmlns="http://www.w3.org/2000/svg" xmlns:xlink="http://www.w3.org/1999/xlink">
<g id="graph0" class="graph" transform="scale(1 1) rotate(0) translate(4 275)">
<title>dependencies</title>
<polygon fill="white" stroke="transparent" points="-4,4 -4,-275 1124,-275 1124,4 -4,4"/>
<text text-anchor="start" x="539.01" y="-42.4" font-family="Times-12" font-weight="bold" font-size="14.00">Legend</text>
<polygon fill="#ffffb3" stroke="transparent" points="326,-10 326,-30 346,-30 346,-10 326,-10"/>
<text text-anchor="start" x="349.63" y="-15.4" font-family="Times-12" font-size="14.00"> &#160;Declarations</text>
<polygon fill="#8dd3c7" stroke="transparent" points="439,-10 439,-30 459,-30 459,-10 439,-10"/>
<text text-anchor="start" x="462.73" y="-15.4" font-family="Times-12" font-size="14.00"> &#160;Module</text>
<polygon fill="#80b1d3" stroke="transparent" points="525,-10 525,-30 545,-30 545,-10 525,-10"/>
<text text-anchor="start" x="548.78" y="-15.4" font-family="Times-12" font-size="14.00"> &#160;Bootstrap</text>
<polygon fill="#fdb462" stroke="transparent" points="622,-10 622,-30 642,-30 642,-10 622,-10"/>
<text text-anchor="start" x="645.67" y="-15.4" font-family="Times-12" font-size="14.00"> &#160;Providers</text>
<polygon fill="#fb8072" stroke="transparent" points="718,-10 718,-30 738,-30 738,-10 718,-10"/>
<text text-anchor="start" x="741.73" y="-15.4" font-family="Times-12" font-size="14.00"> &#160;Exports</text>
<g id="clust1" class="cluster">
<title>cluster_AppModule</title>
<polygon fill="none" stroke="black" stroke-dasharray="1,5" points="8,-70 8,-263 944,-263 944,-70 8,-70"/>
</g>
<g id="clust3" class="cluster">
<title>cluster_AppModule_imports</title>
<polygon fill="none" stroke="black" points="818,-146 818,-198 920,-198 920,-146 818,-146"/>
</g>
<g id="clust6" class="cluster">
<title>cluster_AppModule_providers</title>
<polygon fill="none" stroke="black" points="16,-78 16,-130 936,-130 936,-78 16,-78"/>
</g>
<g id="clust7" class="cluster">
<title>cluster_FilesModule</title>
<polygon fill="none" stroke="black" stroke-dasharray="1,5" points="952,-70 952,-138 1112,-138 1112,-70 952,-70"/>
</g>
<g id="clust12" class="cluster">
<title>cluster_FilesModule_providers</title>
<polygon fill="none" stroke="black" points="960,-78 960,-130 1104,-130 1104,-78 960,-78"/>
</g>
<!-- FilesModule -->
<g id="node1" class="node">
<title>FilesModule</title>
<polygon fill="#8dd3c7" stroke="black" points="912.27,-190 909.27,-194 888.27,-194 885.27,-190 825.73,-190 825.73,-154 912.27,-154 912.27,-190"/>
<text text-anchor="middle" x="869" y="-167.8" font-family="Times,serif" font-size="14.00">FilesModule</text>
</g>
<!-- AppModule -->
<g id="node2" class="node">
<title>AppModule</title>
<polygon fill="#8dd3c7" stroke="black" points="570.66,-255 567.66,-259 546.66,-259 543.66,-255 487.34,-255 487.34,-219 570.66,-219 570.66,-255"/>
<text text-anchor="middle" x="529" y="-232.8" font-family="Times,serif" font-size="14.00">AppModule</text>
</g>
<!-- FilesModule&#45;&gt;AppModule -->
<g id="edge1" class="edge">
<title>FilesModule&#45;&gt;AppModule</title>
<path fill="none" stroke="black" d="M825.7,-172C737.01,-172 542.94,-172 542.94,-172 542.94,-172 542.94,-208.89 542.94,-208.89"/>
<polygon fill="black" stroke="black" points="539.44,-208.89 542.94,-218.89 546.44,-208.89 539.44,-208.89"/>
</g>
<!-- AvatarWorker -->
<g id="node3" class="node">
<title>AvatarWorker</title>
<ellipse fill="#fdb462" stroke="black" cx="285" cy="-104" rx="66.59" ry="18"/>
<text text-anchor="middle" x="285" y="-99.8" font-family="Times,serif" font-size="14.00">AvatarWorker</text>
</g>
<!-- AvatarWorker&#45;&gt;AppModule -->
<g id="edge2" class="edge">
<title>AvatarWorker&#45;&gt;AppModule</title>
<path fill="none" stroke="black" d="M285,-122.21C285,-158.64 285,-237 285,-237 285,-237 477.33,-237 477.33,-237"/>
<polygon fill="black" stroke="black" points="477.33,-240.5 487.33,-237 477.33,-233.5 477.33,-240.5"/>
</g>
<!-- FileCreatedListener -->
<g id="node4" class="node">
<title>FileCreatedListener</title>
<ellipse fill="#fdb462" stroke="black" cx="705" cy="-104" rx="87.95" ry="18"/>
<text text-anchor="middle" x="705" y="-99.8" font-family="Times,serif" font-size="14.00">FileCreatedListener</text>
</g>
<!-- FileCreatedListener&#45;&gt;AppModule -->
<g id="edge3" class="edge">
<title>FileCreatedListener&#45;&gt;AppModule</title>
<path fill="none" stroke="black" d="M705,-122.2C705,-157.31 705,-231 705,-231 705,-231 580.71,-231 580.71,-231"/>
<polygon fill="black" stroke="black" points="580.71,-227.5 570.71,-231 580.71,-234.5 580.71,-227.5"/>
</g>
<!-- FileDeletedListener -->
<g id="node5" class="node">
<title>FileDeletedListener</title>
<ellipse fill="#fdb462" stroke="black" cx="112" cy="-104" rx="87.95" ry="18"/>
<text text-anchor="middle" x="112" y="-99.8" font-family="Times,serif" font-size="14.00">FileDeletedListener</text>
</g>
<!-- FileDeletedListener&#45;&gt;AppModule -->
<g id="edge4" class="edge">
<title>FileDeletedListener&#45;&gt;AppModule</title>
<path fill="none" stroke="black" d="M112,-122.27C112,-160.63 112,-246 112,-246 112,-246 477.11,-246 477.11,-246"/>
<polygon fill="black" stroke="black" points="477.11,-249.5 487.11,-246 477.11,-242.5 477.11,-249.5"/>
</g>
<!-- FilesService -->
<g id="node6" class="node">
<title>FilesService</title>
<ellipse fill="#fdb462" stroke="black" cx="869" cy="-104" rx="58.54" ry="18"/>
<text text-anchor="middle" x="869" y="-99.8" font-family="Times,serif" font-size="14.00">FilesService</text>
</g>
<!-- FilesService&#45;&gt;FilesModule -->
<g id="edge8" class="edge">
<title>FilesService&#45;&gt;FilesModule</title>
<path fill="none" stroke="black" d="M869,-122.22C869,-122.22 869,-143.73 869,-143.73"/>
<polygon fill="black" stroke="black" points="865.5,-143.73 869,-153.73 872.5,-143.73 865.5,-143.73"/>
</g>
<!-- FilesService&#45;&gt;AppModule -->
<g id="edge5" class="edge">
<title>FilesService&#45;&gt;AppModule</title>
<path fill="none" stroke="black" d="M817.92,-113.12C817.92,-144.04 817.92,-243 817.92,-243 817.92,-243 580.7,-243 580.7,-243"/>
<polygon fill="black" stroke="black" points="580.7,-239.5 570.7,-243 580.7,-246.5 580.7,-239.5"/>
</g>
<!-- FsUtil -->
<g id="node7" class="node">
<title>FsUtil</title>
<ellipse fill="#fdb462" stroke="black" cx="405" cy="-104" rx="35.37" ry="18"/>
<text text-anchor="middle" x="405" y="-99.8" font-family="Times,serif" font-size="14.00">FsUtil</text>
</g>
<!-- FsUtil&#45;&gt;AppModule -->
<g id="edge6" class="edge">
<title>FsUtil&#45;&gt;AppModule</title>
<path fill="none" stroke="black" d="M405,-122.03C405,-156.42 405,-228 405,-228 405,-228 477.02,-228 477.02,-228"/>
<polygon fill="black" stroke="black" points="477.02,-231.5 487.02,-228 477.02,-224.5 477.02,-231.5"/>
</g>
<!-- ProductWorker -->
<g id="node8" class="node">
<title>ProductWorker</title>
<ellipse fill="#fdb462" stroke="black" cx="529" cy="-104" rx="70.63" ry="18"/>
<text text-anchor="middle" x="529" y="-99.8" font-family="Times,serif" font-size="14.00">ProductWorker</text>
</g>
<!-- ProductWorker&#45;&gt;AppModule -->
<g id="edge7" class="edge">
<title>ProductWorker&#45;&gt;AppModule</title>
<path fill="none" stroke="black" d="M515.06,-121.66C515.06,-121.66 515.06,-208.84 515.06,-208.84"/>
<polygon fill="black" stroke="black" points="511.56,-208.84 515.06,-218.84 518.56,-208.84 511.56,-208.84"/>
</g>
<!-- FormatterUtil -->
<g id="node9" class="node">
<title>FormatterUtil</title>
<ellipse fill="#fdb462" stroke="black" cx="1032" cy="-104" rx="64.28" ry="18"/>
<text text-anchor="middle" x="1032" y="-99.8" font-family="Times,serif" font-size="14.00">FormatterUtil</text>
</g>
<!-- FormatterUtil&#45;&gt;FilesModule -->
<g id="edge9" class="edge">
<title>FormatterUtil&#45;&gt;FilesModule</title>
<path fill="none" stroke="black" d="M1032,-122.22C1032,-142.37 1032,-172 1032,-172 1032,-172 922.68,-172 922.68,-172"/>
<polygon fill="black" stroke="black" points="922.68,-168.5 912.68,-172 922.68,-175.5 922.68,-168.5"/>
</g>
</g>
</svg>
