<?xml version="1.0" encoding="UTF-8" standalone="no"?>
<!DOCTYPE svg PUBLIC "-//W3C//DTD SVG 1.1//EN"
 "http://www.w3.org/Graphics/SVG/1.1/DTD/svg11.dtd">
<!-- Generated by graphviz version 2.47.0 (20210316.0004)
 -->
<!-- Title: dependencies Pages: 1 -->
<svg width="1050pt" height="222pt"
 viewBox="0.00 0.00 1050.00 222.00" xmlns="http://www.w3.org/2000/svg" xmlns:xlink="http://www.w3.org/1999/xlink">
<g id="graph0" class="graph" transform="scale(1 1) rotate(0) translate(4 218)">
<title>dependencies</title>
<polygon fill="white" stroke="transparent" points="-4,4 -4,-218 1046,-218 1046,4 -4,4"/>
<text text-anchor="start" x="500.01" y="-42.4" font-family="Times-12" font-weight="bold" font-size="14.00">Legend</text>
<polygon fill="#ffffb3" stroke="transparent" points="287,-10 287,-30 307,-30 307,-10 287,-10"/>
<text text-anchor="start" x="310.63" y="-15.4" font-family="Times-12" font-size="14.00"> &#160;Declarations</text>
<polygon fill="#8dd3c7" stroke="transparent" points="400,-10 400,-30 420,-30 420,-10 400,-10"/>
<text text-anchor="start" x="423.73" y="-15.4" font-family="Times-12" font-size="14.00"> &#160;Module</text>
<polygon fill="#80b1d3" stroke="transparent" points="486,-10 486,-30 506,-30 506,-10 486,-10"/>
<text text-anchor="start" x="509.78" y="-15.4" font-family="Times-12" font-size="14.00"> &#160;Bootstrap</text>
<polygon fill="#fdb462" stroke="transparent" points="583,-10 583,-30 603,-30 603,-10 583,-10"/>
<text text-anchor="start" x="606.67" y="-15.4" font-family="Times-12" font-size="14.00"> &#160;Providers</text>
<polygon fill="#fb8072" stroke="transparent" points="679,-10 679,-30 699,-30 699,-10 679,-10"/>
<text text-anchor="start" x="702.73" y="-15.4" font-family="Times-12" font-size="14.00"> &#160;Exports</text>
<g id="clust1" class="cluster">
<title>cluster_AppModule</title>
<polygon fill="none" stroke="black" stroke-dasharray="1,5" points="8,-70 8,-198 338,-198 338,-70 8,-70"/>
</g>
<g id="clust3" class="cluster">
<title>cluster_AppModule_imports</title>
<polygon fill="none" stroke="black" points="16,-78 16,-130 330,-130 330,-78 16,-78"/>
</g>
<g id="clust13" class="cluster">
<title>cluster_EmailBuilderModule</title>
<polygon fill="none" stroke="black" stroke-dasharray="1,5" points="346,-138 346,-206 622,-206 622,-138 346,-138"/>
</g>
<g id="clust16" class="cluster">
<title>cluster_EmailBuilderModule_exports</title>
<polygon fill="none" stroke="black" points="504,-146 504,-198 614,-198 614,-146 504,-146"/>
</g>
<g id="clust18" class="cluster">
<title>cluster_EmailBuilderModule_providers</title>
<polygon fill="none" stroke="black" points="354,-146 354,-198 496,-198 496,-146 354,-146"/>
</g>
<g id="clust19" class="cluster">
<title>cluster_NatsMessengerModule</title>
<polygon fill="none" stroke="black" stroke-dasharray="1,5" points="630,-138 630,-206 1034,-206 1034,-138 630,-138"/>
</g>
<g id="clust22" class="cluster">
<title>cluster_NatsMessengerModule_exports</title>
<polygon fill="none" stroke="black" points="862,-146 862,-198 1026,-198 1026,-146 862,-146"/>
</g>
<g id="clust24" class="cluster">
<title>cluster_NatsMessengerModule_providers</title>
<polygon fill="none" stroke="black" points="638,-146 638,-198 854,-198 854,-146 638,-146"/>
</g>
<!-- EmailBuilderModule -->
<g id="node1" class="node">
<title>EmailBuilderModule</title>
<polygon fill="#8dd3c7" stroke="black" points="158.48,-122 155.48,-126 134.48,-126 131.48,-122 23.52,-122 23.52,-86 158.48,-86 158.48,-122"/>
<text text-anchor="middle" x="91" y="-99.8" font-family="Times,serif" font-size="14.00">EmailBuilderModule</text>
</g>
<!-- AppModule -->
<g id="node3" class="node">
<title>AppModule</title>
<polygon fill="#8dd3c7" stroke="black" points="211.66,-190 208.66,-194 187.66,-194 184.66,-190 128.34,-190 128.34,-154 211.66,-154 211.66,-190"/>
<text text-anchor="middle" x="170" y="-167.8" font-family="Times,serif" font-size="14.00">AppModule</text>
</g>
<!-- EmailBuilderModule&#45;&gt;AppModule -->
<g id="edge1" class="edge">
<title>EmailBuilderModule&#45;&gt;AppModule</title>
<path fill="none" stroke="black" d="M135.75,-122.22C135.75,-122.22 135.75,-143.73 135.75,-143.73"/>
<polygon fill="black" stroke="black" points="132.25,-143.73 135.75,-153.73 139.25,-143.73 132.25,-143.73"/>
</g>
<!-- EmailService  -->
<g id="node4" class="node">
<title>EmailService </title>
<polygon fill="#fb8072" stroke="black" points="606.42,-190 511.58,-190 511.58,-154 606.42,-154 606.42,-190"/>
<text text-anchor="middle" x="559" y="-167.8" font-family="Times,serif" font-size="14.00">EmailService </text>
</g>
<!-- EmailBuilderModule&#45;&gt;EmailService  -->
<g id="edge3" class="edge">
<title>EmailBuilderModule&#45;&gt;EmailService </title>
<path fill="none" stroke="black" stroke-dasharray="5,2" d="M143.33,-122.2C143.33,-128.03 143.33,-133 143.33,-133 143.33,-133 559,-133 559,-133 559,-133 559,-143.87 559,-143.87"/>
<polygon fill="black" stroke="black" points="555.5,-143.87 559,-153.87 562.5,-143.87 555.5,-143.87"/>
</g>
<!-- NatsMessengerModule -->
<g id="node2" class="node">
<title>NatsMessengerModule</title>
<polygon fill="#8dd3c7" stroke="black" points="321.84,-122 318.84,-126 297.84,-126 294.84,-122 176.16,-122 176.16,-86 321.84,-86 321.84,-122"/>
<text text-anchor="middle" x="249" y="-99.8" font-family="Times,serif" font-size="14.00">NatsMessengerModule</text>
</g>
<!-- NatsMessengerModule&#45;&gt;AppModule -->
<g id="edge2" class="edge">
<title>NatsMessengerModule&#45;&gt;AppModule</title>
<path fill="none" stroke="black" d="M193.95,-122.22C193.95,-122.22 193.95,-143.73 193.95,-143.73"/>
<polygon fill="black" stroke="black" points="190.45,-143.73 193.95,-153.73 197.45,-143.73 190.45,-143.73"/>
</g>
<!-- NatsMessengerService  -->
<g id="node6" class="node">
<title>NatsMessengerService </title>
<polygon fill="#fb8072" stroke="black" points="1017.77,-190 870.23,-190 870.23,-154 1017.77,-154 1017.77,-190"/>
<text text-anchor="middle" x="944" y="-167.8" font-family="Times,serif" font-size="14.00">NatsMessengerService </text>
</g>
<!-- NatsMessengerModule&#45;&gt;NatsMessengerService  -->
<g id="edge5" class="edge">
<title>NatsMessengerModule&#45;&gt;NatsMessengerService </title>
<path fill="none" stroke="black" stroke-dasharray="5,2" d="M322.06,-98C500.5,-98 944,-98 944,-98 944,-98 944,-143.71 944,-143.71"/>
<polygon fill="black" stroke="black" points="940.5,-143.71 944,-153.71 947.5,-143.71 940.5,-143.71"/>
</g>
<!-- EmailService -->
<g id="node5" class="node">
<title>EmailService</title>
<ellipse fill="#fdb462" stroke="black" cx="425" cy="-172" rx="63.12" ry="18"/>
<text text-anchor="middle" x="425" y="-167.8" font-family="Times,serif" font-size="14.00">EmailService</text>
</g>
<!-- EmailService&#45;&gt;EmailBuilderModule -->
<g id="edge4" class="edge">
<title>EmailService&#45;&gt;EmailBuilderModule</title>
<path fill="none" stroke="black" d="M425,-153.79C425,-148.45 425,-144 425,-144 425,-144 150.91,-144 150.91,-144 150.91,-144 150.91,-132.13 150.91,-132.13"/>
<polygon fill="black" stroke="black" points="154.41,-132.13 150.91,-122.13 147.41,-132.13 154.41,-132.13"/>
</g>
<!-- NatsMessengerService -->
<g id="node7" class="node">
<title>NatsMessengerService</title>
<ellipse fill="#fdb462" stroke="black" cx="746" cy="-172" rx="99.53" ry="18"/>
<text text-anchor="middle" x="746" y="-167.8" font-family="Times,serif" font-size="14.00">NatsMessengerService</text>
</g>
<!-- NatsMessengerService&#45;&gt;NatsMessengerModule -->
<g id="edge6" class="edge">
<title>NatsMessengerService&#45;&gt;NatsMessengerModule</title>
<path fill="none" stroke="black" d="M746,-153.73C746,-135.44 746,-110 746,-110 746,-110 332.07,-110 332.07,-110"/>
<polygon fill="black" stroke="black" points="332.07,-106.5 322.07,-110 332.07,-113.5 332.07,-106.5"/>
</g>
</g>
</svg>
