<?xml version="1.0" encoding="UTF-8" standalone="no"?>
<!DOCTYPE svg PUBLIC "-//W3C//DTD SVG 1.1//EN"
 "http://www.w3.org/Graphics/SVG/1.1/DTD/svg11.dtd">
<!-- Generated by graphviz version 2.47.0 (20210316.0004)
 -->
<!-- Title: dependencies Pages: 1 -->
<svg width="504pt" height="284pt"
 viewBox="0.00 0.00 504.00 284.00" xmlns="http://www.w3.org/2000/svg" xmlns:xlink="http://www.w3.org/1999/xlink">
<g id="graph0" class="graph" transform="scale(1 1) rotate(0) translate(4 280)">
<title>dependencies</title>
<polygon fill="white" stroke="transparent" points="-4,4 -4,-280 500,-280 500,4 -4,4"/>
<text text-anchor="start" x="227.01" y="-42.4" font-family="Times-12" font-weight="bold" font-size="14.00">Legend</text>
<polygon fill="#ffffb3" stroke="transparent" points="14,-10 14,-30 34,-30 34,-10 14,-10"/>
<text text-anchor="start" x="37.63" y="-15.4" font-family="Times-12" font-size="14.00"> &#160;Declarations</text>
<polygon fill="#8dd3c7" stroke="transparent" points="127,-10 127,-30 147,-30 147,-10 127,-10"/>
<text text-anchor="start" x="150.73" y="-15.4" font-family="Times-12" font-size="14.00"> &#160;Module</text>
<polygon fill="#80b1d3" stroke="transparent" points="213,-10 213,-30 233,-30 233,-10 213,-10"/>
<text text-anchor="start" x="236.78" y="-15.4" font-family="Times-12" font-size="14.00"> &#160;Bootstrap</text>
<polygon fill="#fdb462" stroke="transparent" points="310,-10 310,-30 330,-30 330,-10 310,-10"/>
<text text-anchor="start" x="333.67" y="-15.4" font-family="Times-12" font-size="14.00"> &#160;Providers</text>
<polygon fill="#fb8072" stroke="transparent" points="406,-10 406,-30 426,-30 426,-10 406,-10"/>
<text text-anchor="start" x="429.73" y="-15.4" font-family="Times-12" font-size="14.00"> &#160;Exports</text>
<g id="clust1" class="cluster">
<title>cluster_RelationModule</title>
<polygon fill="none" stroke="black" stroke-dasharray="1,5" points="74,-70 74,-268 422,-268 422,-70 74,-70"/>
</g>
<g id="clust4" class="cluster">
<title>cluster_RelationModule_exports</title>
<polygon fill="none" stroke="black" points="186,-208 186,-260 310,-260 310,-208 186,-208"/>
</g>
<g id="clust3" class="cluster">
<title>cluster_RelationModule_imports</title>
<polygon fill="none" stroke="black" points="252,-78 252,-130 414,-130 414,-78 252,-78"/>
</g>
<g id="clust6" class="cluster">
<title>cluster_RelationModule_providers</title>
<polygon fill="none" stroke="black" points="82,-78 82,-130 244,-130 244,-78 82,-78"/>
</g>
<!-- NatsMessengerModule -->
<g id="node1" class="node">
<title>NatsMessengerModule</title>
<polygon fill="#8dd3c7" stroke="black" points="405.84,-122 402.84,-126 381.84,-126 378.84,-122 260.16,-122 260.16,-86 405.84,-86 405.84,-122"/>
<text text-anchor="middle" x="333" y="-99.8" font-family="Times,serif" font-size="14.00">NatsMessengerModule</text>
</g>
<!-- RelationModule -->
<g id="node2" class="node">
<title>RelationModule</title>
<polygon fill="#8dd3c7" stroke="black" points="301.49,-187 298.49,-191 277.49,-191 274.49,-187 194.51,-187 194.51,-151 301.49,-151 301.49,-187"/>
<text text-anchor="middle" x="248" y="-164.8" font-family="Times,serif" font-size="14.00">RelationModule</text>
</g>
<!-- NatsMessengerModule&#45;&gt;RelationModule -->
<g id="edge1" class="edge">
<title>NatsMessengerModule&#45;&gt;RelationModule</title>
<path fill="none" stroke="black" d="M280.79,-122.11C280.79,-122.11 280.79,-140.99 280.79,-140.99"/>
<polygon fill="black" stroke="black" points="277.29,-140.99 280.79,-150.99 284.29,-140.99 277.29,-140.99"/>
</g>
<!-- RelationService  -->
<g id="node3" class="node">
<title>RelationService </title>
<polygon fill="#fb8072" stroke="black" points="302.42,-252 193.58,-252 193.58,-216 302.42,-216 302.42,-252"/>
<text text-anchor="middle" x="248" y="-229.8" font-family="Times,serif" font-size="14.00">RelationService </text>
</g>
<!-- RelationModule&#45;&gt;RelationService  -->
<g id="edge2" class="edge">
<title>RelationModule&#45;&gt;RelationService </title>
<path fill="none" stroke="black" stroke-dasharray="5,2" d="M248,-187.11C248,-187.11 248,-205.99 248,-205.99"/>
<polygon fill="black" stroke="black" points="244.5,-205.99 248,-215.99 251.5,-205.99 244.5,-205.99"/>
</g>
<!-- RelationService -->
<g id="node4" class="node">
<title>RelationService</title>
<ellipse fill="#fdb462" stroke="black" cx="163" cy="-104" rx="72.93" ry="18"/>
<text text-anchor="middle" x="163" y="-99.8" font-family="Times,serif" font-size="14.00">RelationService</text>
</g>
<!-- RelationService&#45;&gt;RelationModule -->
<g id="edge3" class="edge">
<title>RelationService&#45;&gt;RelationModule</title>
<path fill="none" stroke="black" d="M215.11,-116.84C215.11,-116.84 215.11,-140.52 215.11,-140.52"/>
<polygon fill="black" stroke="black" points="211.61,-140.52 215.11,-150.52 218.61,-140.52 211.61,-140.52"/>
</g>
</g>
</svg>
