<?xml version="1.0" encoding="UTF-8" standalone="no"?>
<!DOCTYPE svg PUBLIC "-//W3C//DTD SVG 1.1//EN"
 "http://www.w3.org/Graphics/SVG/1.1/DTD/svg11.dtd">
<!-- Generated by graphviz version 2.47.0 (20210316.0004)
 -->
<!-- Title: dependencies Pages: 1 -->
<svg width="563pt" height="211pt"
 viewBox="0.00 0.00 563.00 211.00" xmlns="http://www.w3.org/2000/svg" xmlns:xlink="http://www.w3.org/1999/xlink">
<g id="graph0" class="graph" transform="scale(1 1) rotate(0) translate(4 207)">
<title>dependencies</title>
<polygon fill="white" stroke="transparent" points="-4,4 -4,-207 559,-207 559,4 -4,4"/>
<text text-anchor="start" x="256.51" y="-42.4" font-family="Times-12" font-weight="bold" font-size="14.00">Legend</text>
<polygon fill="#ffffb3" stroke="transparent" points="43.5,-10 43.5,-30 63.5,-30 63.5,-10 43.5,-10"/>
<text text-anchor="start" x="67.13" y="-15.4" font-family="Times-12" font-size="14.00"> &#160;Declarations</text>
<polygon fill="#8dd3c7" stroke="transparent" points="156.5,-10 156.5,-30 176.5,-30 176.5,-10 156.5,-10"/>
<text text-anchor="start" x="180.23" y="-15.4" font-family="Times-12" font-size="14.00"> &#160;Module</text>
<polygon fill="#80b1d3" stroke="transparent" points="242.5,-10 242.5,-30 262.5,-30 262.5,-10 242.5,-10"/>
<text text-anchor="start" x="266.28" y="-15.4" font-family="Times-12" font-size="14.00"> &#160;Bootstrap</text>
<polygon fill="#fdb462" stroke="transparent" points="339.5,-10 339.5,-30 359.5,-30 359.5,-10 339.5,-10"/>
<text text-anchor="start" x="363.17" y="-15.4" font-family="Times-12" font-size="14.00"> &#160;Providers</text>
<polygon fill="#fb8072" stroke="transparent" points="435.5,-10 435.5,-30 455.5,-30 455.5,-10 435.5,-10"/>
<text text-anchor="start" x="459.23" y="-15.4" font-family="Times-12" font-size="14.00"> &#160;Exports</text>
<g id="clust1" class="cluster">
<title>cluster_AppModule</title>
<polygon fill="none" stroke="black" stroke-dasharray="1,5" points="8,-70 8,-195 547,-195 547,-70 8,-70"/>
</g>
<g id="clust3" class="cluster">
<title>cluster_AppModule_imports</title>
<polygon fill="none" stroke="black" points="16,-78 16,-130 539,-130 539,-78 16,-78"/>
</g>
<!-- DatabaseModule -->
<g id="node1" class="node">
<title>DatabaseModule</title>
<polygon fill="#8dd3c7" stroke="black" points="531.35,-122 528.35,-126 507.35,-126 504.35,-122 420.65,-122 420.65,-86 531.35,-86 531.35,-122"/>
<text text-anchor="middle" x="476" y="-99.8" font-family="Times,serif" font-size="14.00">DatabaseModule</text>
</g>
<!-- AppModule -->
<g id="node5" class="node">
<title>AppModule</title>
<polygon fill="#8dd3c7" stroke="black" points="328.66,-187 325.66,-191 304.66,-191 301.66,-187 245.34,-187 245.34,-151 328.66,-151 328.66,-187"/>
<text text-anchor="middle" x="287" y="-164.8" font-family="Times,serif" font-size="14.00">AppModule</text>
</g>
<!-- DatabaseModule&#45;&gt;AppModule -->
<g id="edge1" class="edge">
<title>DatabaseModule&#45;&gt;AppModule</title>
<path fill="none" stroke="black" d="M476,-122.11C476,-141.34 476,-169 476,-169 476,-169 338.95,-169 338.95,-169"/>
<polygon fill="black" stroke="black" points="338.95,-165.5 328.95,-169 338.95,-172.5 338.95,-165.5"/>
</g>
<!-- EventModule -->
<g id="node2" class="node">
<title>EventModule</title>
<polygon fill="#8dd3c7" stroke="black" points="402.21,-122 399.21,-126 378.21,-126 375.21,-122 309.79,-122 309.79,-86 402.21,-86 402.21,-122"/>
<text text-anchor="middle" x="356" y="-99.8" font-family="Times,serif" font-size="14.00">EventModule</text>
</g>
<!-- EventModule&#45;&gt;AppModule -->
<g id="edge2" class="edge">
<title>EventModule&#45;&gt;AppModule</title>
<path fill="none" stroke="black" d="M319.36,-122.11C319.36,-122.11 319.36,-140.99 319.36,-140.99"/>
<polygon fill="black" stroke="black" points="315.86,-140.99 319.36,-150.99 322.86,-140.99 315.86,-140.99"/>
</g>
<!-- NatsMessengerModule -->
<g id="node3" class="node">
<title>NatsMessengerModule</title>
<polygon fill="#8dd3c7" stroke="black" points="291.84,-122 288.84,-126 267.84,-126 264.84,-122 146.16,-122 146.16,-86 291.84,-86 291.84,-122"/>
<text text-anchor="middle" x="219" y="-99.8" font-family="Times,serif" font-size="14.00">NatsMessengerModule</text>
</g>
<!-- NatsMessengerModule&#45;&gt;AppModule -->
<g id="edge3" class="edge">
<title>NatsMessengerModule&#45;&gt;AppModule</title>
<path fill="none" stroke="black" d="M268.55,-122.11C268.55,-122.11 268.55,-140.99 268.55,-140.99"/>
<polygon fill="black" stroke="black" points="265.05,-140.99 268.55,-150.99 272.05,-140.99 265.05,-140.99"/>
</g>
<!-- RequestModule -->
<g id="node4" class="node">
<title>RequestModule</title>
<polygon fill="#8dd3c7" stroke="black" points="128.15,-122 125.15,-126 104.15,-126 101.15,-122 23.85,-122 23.85,-86 128.15,-86 128.15,-122"/>
<text text-anchor="middle" x="76" y="-99.8" font-family="Times,serif" font-size="14.00">RequestModule</text>
</g>
<!-- RequestModule&#45;&gt;AppModule -->
<g id="edge4" class="edge">
<title>RequestModule&#45;&gt;AppModule</title>
<path fill="none" stroke="black" d="M76,-122.11C76,-141.34 76,-169 76,-169 76,-169 235.31,-169 235.31,-169"/>
<polygon fill="black" stroke="black" points="235.31,-172.5 245.31,-169 235.31,-165.5 235.31,-172.5"/>
</g>
</g>
</svg>
