<?xml version="1.0" encoding="UTF-8" standalone="no"?>
<!DOCTYPE svg PUBLIC "-//W3C//DTD SVG 1.1//EN"
 "http://www.w3.org/Graphics/SVG/1.1/DTD/svg11.dtd">
<!-- Generated by graphviz version 2.47.0 (20210316.0004)
 -->
<!-- Title: dependencies Pages: 1 -->
<svg width="504pt" height="284pt"
 viewBox="0.00 0.00 504.00 284.00" xmlns="http://www.w3.org/2000/svg" xmlns:xlink="http://www.w3.org/1999/xlink">
<g id="graph0" class="graph" transform="scale(1 1) rotate(0) translate(4 280)">
<title>dependencies</title>
<polygon fill="white" stroke="transparent" points="-4,4 -4,-280 500,-280 500,4 -4,4"/>
<text text-anchor="start" x="227.01" y="-42.4" font-family="Times-12" font-weight="bold" font-size="14.00">Legend</text>
<polygon fill="#ffffb3" stroke="transparent" points="14,-10 14,-30 34,-30 34,-10 14,-10"/>
<text text-anchor="start" x="37.63" y="-15.4" font-family="Times-12" font-size="14.00"> &#160;Declarations</text>
<polygon fill="#8dd3c7" stroke="transparent" points="127,-10 127,-30 147,-30 147,-10 127,-10"/>
<text text-anchor="start" x="150.73" y="-15.4" font-family="Times-12" font-size="14.00"> &#160;Module</text>
<polygon fill="#80b1d3" stroke="transparent" points="213,-10 213,-30 233,-30 233,-10 213,-10"/>
<text text-anchor="start" x="236.78" y="-15.4" font-family="Times-12" font-size="14.00"> &#160;Bootstrap</text>
<polygon fill="#fdb462" stroke="transparent" points="310,-10 310,-30 330,-30 330,-10 310,-10"/>
<text text-anchor="start" x="333.67" y="-15.4" font-family="Times-12" font-size="14.00"> &#160;Providers</text>
<polygon fill="#fb8072" stroke="transparent" points="406,-10 406,-30 426,-30 426,-10 406,-10"/>
<text text-anchor="start" x="429.73" y="-15.4" font-family="Times-12" font-size="14.00"> &#160;Exports</text>
<g id="clust1" class="cluster">
<title>cluster_AssociationModule</title>
<polygon fill="none" stroke="black" stroke-dasharray="1,5" points="61,-70 61,-268 435,-268 435,-70 61,-70"/>
</g>
<g id="clust6" class="cluster">
<title>cluster_AssociationModule_providers</title>
<polygon fill="none" stroke="black" points="239,-78 239,-130 427,-130 427,-78 239,-78"/>
</g>
<g id="clust4" class="cluster">
<title>cluster_AssociationModule_exports</title>
<polygon fill="none" stroke="black" points="169,-208 169,-260 313,-260 313,-208 169,-208"/>
</g>
<g id="clust3" class="cluster">
<title>cluster_AssociationModule_imports</title>
<polygon fill="none" stroke="black" points="69,-78 69,-130 231,-130 231,-78 69,-78"/>
</g>
<!-- NatsMessengerModule -->
<g id="node1" class="node">
<title>NatsMessengerModule</title>
<polygon fill="#8dd3c7" stroke="black" points="222.84,-122 219.84,-126 198.84,-126 195.84,-122 77.16,-122 77.16,-86 222.84,-86 222.84,-122"/>
<text text-anchor="middle" x="150" y="-99.8" font-family="Times,serif" font-size="14.00">NatsMessengerModule</text>
</g>
<!-- AssociationModule -->
<g id="node2" class="node">
<title>AssociationModule</title>
<polygon fill="#8dd3c7" stroke="black" points="303.65,-187 300.65,-191 279.65,-191 276.65,-187 178.35,-187 178.35,-151 303.65,-151 303.65,-187"/>
<text text-anchor="middle" x="241" y="-164.8" font-family="Times,serif" font-size="14.00">AssociationModule</text>
</g>
<!-- NatsMessengerModule&#45;&gt;AssociationModule -->
<g id="edge1" class="edge">
<title>NatsMessengerModule&#45;&gt;AssociationModule</title>
<path fill="none" stroke="black" d="M200.55,-122.11C200.55,-122.11 200.55,-140.99 200.55,-140.99"/>
<polygon fill="black" stroke="black" points="197.05,-140.99 200.55,-150.99 204.05,-140.99 197.05,-140.99"/>
</g>
<!-- AssociationService  -->
<g id="node3" class="node">
<title>AssociationService </title>
<polygon fill="#fb8072" stroke="black" points="304.58,-252 177.42,-252 177.42,-216 304.58,-216 304.58,-252"/>
<text text-anchor="middle" x="241" y="-229.8" font-family="Times,serif" font-size="14.00">AssociationService </text>
</g>
<!-- AssociationModule&#45;&gt;AssociationService  -->
<g id="edge2" class="edge">
<title>AssociationModule&#45;&gt;AssociationService </title>
<path fill="none" stroke="black" stroke-dasharray="5,2" d="M241,-187.11C241,-187.11 241,-205.99 241,-205.99"/>
<polygon fill="black" stroke="black" points="237.5,-205.99 241,-215.99 244.5,-205.99 237.5,-205.99"/>
</g>
<!-- AssociationService -->
<g id="node4" class="node">
<title>AssociationService</title>
<ellipse fill="#fdb462" stroke="black" cx="333" cy="-104" rx="85.67" ry="18"/>
<text text-anchor="middle" x="333" y="-99.8" font-family="Times,serif" font-size="14.00">AssociationService</text>
</g>
<!-- AssociationService&#45;&gt;AssociationModule -->
<g id="edge3" class="edge">
<title>AssociationService&#45;&gt;AssociationModule</title>
<path fill="none" stroke="black" d="M275.62,-117.47C275.62,-117.47 275.62,-140.86 275.62,-140.86"/>
<polygon fill="black" stroke="black" points="272.12,-140.86 275.62,-150.86 279.12,-140.86 272.12,-140.86"/>
</g>
</g>
</svg>
