<?xml version="1.0" encoding="UTF-8" standalone="no"?>
<!DOCTYPE svg PUBLIC "-//W3C//DTD SVG 1.1//EN"
 "http://www.w3.org/Graphics/SVG/1.1/DTD/svg11.dtd">
<!-- Generated by graphviz version 2.47.0 (20210316.0004)
 -->
<!-- Title: dependencies Pages: 1 -->
<svg width="583pt" height="211pt"
 viewBox="0.00 0.00 583.00 211.00" xmlns="http://www.w3.org/2000/svg" xmlns:xlink="http://www.w3.org/1999/xlink">
<g id="graph0" class="graph" transform="scale(1 1) rotate(0) translate(4 207)">
<title>dependencies</title>
<polygon fill="white" stroke="transparent" points="-4,4 -4,-207 579,-207 579,4 -4,4"/>
<text text-anchor="start" x="266.51" y="-42.4" font-family="Times-12" font-weight="bold" font-size="14.00">Legend</text>
<polygon fill="#ffffb3" stroke="transparent" points="53.5,-10 53.5,-30 73.5,-30 73.5,-10 53.5,-10"/>
<text text-anchor="start" x="77.13" y="-15.4" font-family="Times-12" font-size="14.00"> &#160;Declarations</text>
<polygon fill="#8dd3c7" stroke="transparent" points="166.5,-10 166.5,-30 186.5,-30 186.5,-10 166.5,-10"/>
<text text-anchor="start" x="190.23" y="-15.4" font-family="Times-12" font-size="14.00"> &#160;Module</text>
<polygon fill="#80b1d3" stroke="transparent" points="252.5,-10 252.5,-30 272.5,-30 272.5,-10 252.5,-10"/>
<text text-anchor="start" x="276.28" y="-15.4" font-family="Times-12" font-size="14.00"> &#160;Bootstrap</text>
<polygon fill="#fdb462" stroke="transparent" points="349.5,-10 349.5,-30 369.5,-30 369.5,-10 349.5,-10"/>
<text text-anchor="start" x="373.17" y="-15.4" font-family="Times-12" font-size="14.00"> &#160;Providers</text>
<polygon fill="#fb8072" stroke="transparent" points="445.5,-10 445.5,-30 465.5,-30 465.5,-10 445.5,-10"/>
<text text-anchor="start" x="469.23" y="-15.4" font-family="Times-12" font-size="14.00"> &#160;Exports</text>
<g id="clust1" class="cluster">
<title>cluster_AppModule</title>
<polygon fill="none" stroke="black" stroke-dasharray="1,5" points="8,-70 8,-195 567,-195 567,-70 8,-70"/>
</g>
<g id="clust3" class="cluster">
<title>cluster_AppModule_imports</title>
<polygon fill="none" stroke="black" points="16,-78 16,-130 559,-130 559,-78 16,-78"/>
</g>
<!-- AssociationModule -->
<g id="node1" class="node">
<title>AssociationModule</title>
<polygon fill="#8dd3c7" stroke="black" points="550.65,-122 547.65,-126 526.65,-126 523.65,-122 425.35,-122 425.35,-86 550.65,-86 550.65,-122"/>
<text text-anchor="middle" x="488" y="-99.8" font-family="Times,serif" font-size="14.00">AssociationModule</text>
</g>
<!-- AppModule -->
<g id="node5" class="node">
<title>AppModule</title>
<polygon fill="#8dd3c7" stroke="black" points="331.66,-187 328.66,-191 307.66,-191 304.66,-187 248.34,-187 248.34,-151 331.66,-151 331.66,-187"/>
<text text-anchor="middle" x="290" y="-164.8" font-family="Times,serif" font-size="14.00">AppModule</text>
</g>
<!-- AssociationModule&#45;&gt;AppModule -->
<g id="edge1" class="edge">
<title>AssociationModule&#45;&gt;AppModule</title>
<path fill="none" stroke="black" d="M488,-122.11C488,-141.34 488,-169 488,-169 488,-169 341.99,-169 341.99,-169"/>
<polygon fill="black" stroke="black" points="341.99,-165.5 331.99,-169 341.99,-172.5 341.99,-165.5"/>
</g>
<!-- GroupModule -->
<g id="node2" class="node">
<title>GroupModule</title>
<polygon fill="#8dd3c7" stroke="black" points="407.82,-122 404.82,-126 383.82,-126 380.82,-122 312.18,-122 312.18,-86 407.82,-86 407.82,-122"/>
<text text-anchor="middle" x="360" y="-99.8" font-family="Times,serif" font-size="14.00">GroupModule</text>
</g>
<!-- GroupModule&#45;&gt;AppModule -->
<g id="edge2" class="edge">
<title>GroupModule&#45;&gt;AppModule</title>
<path fill="none" stroke="black" d="M322.08,-122.11C322.08,-122.11 322.08,-140.99 322.08,-140.99"/>
<polygon fill="black" stroke="black" points="318.58,-140.99 322.08,-150.99 325.58,-140.99 318.58,-140.99"/>
</g>
<!-- NatsMessengerModule -->
<g id="node3" class="node">
<title>NatsMessengerModule</title>
<polygon fill="#8dd3c7" stroke="black" points="293.84,-122 290.84,-126 269.84,-126 266.84,-122 148.16,-122 148.16,-86 293.84,-86 293.84,-122"/>
<text text-anchor="middle" x="221" y="-99.8" font-family="Times,serif" font-size="14.00">NatsMessengerModule</text>
</g>
<!-- NatsMessengerModule&#45;&gt;AppModule -->
<g id="edge3" class="edge">
<title>NatsMessengerModule&#45;&gt;AppModule</title>
<path fill="none" stroke="black" d="M271.05,-122.11C271.05,-122.11 271.05,-140.99 271.05,-140.99"/>
<polygon fill="black" stroke="black" points="267.55,-140.99 271.05,-150.99 274.55,-140.99 267.55,-140.99"/>
</g>
<!-- RelationModule -->
<g id="node4" class="node">
<title>RelationModule</title>
<polygon fill="#8dd3c7" stroke="black" points="130.49,-122 127.49,-126 106.49,-126 103.49,-122 23.51,-122 23.51,-86 130.49,-86 130.49,-122"/>
<text text-anchor="middle" x="77" y="-99.8" font-family="Times,serif" font-size="14.00">RelationModule</text>
</g>
<!-- RelationModule&#45;&gt;AppModule -->
<g id="edge4" class="edge">
<title>RelationModule&#45;&gt;AppModule</title>
<path fill="none" stroke="black" d="M77,-122.11C77,-141.34 77,-169 77,-169 77,-169 238.17,-169 238.17,-169"/>
<polygon fill="black" stroke="black" points="238.17,-172.5 248.17,-169 238.17,-165.5 238.17,-172.5"/>
</g>
</g>
</svg>
