<?xml version="1.0" encoding="UTF-8" standalone="no"?>
<!DOCTYPE svg PUBLIC "-//W3C//DTD SVG 1.1//EN"
 "http://www.w3.org/Graphics/SVG/1.1/DTD/svg11.dtd">
<!-- Generated by graphviz version 2.47.0 (20210316.0004)
 -->
<!-- Title: dependencies Pages: 1 -->
<svg width="1405pt" height="295pt"
 viewBox="0.00 0.00 1405.00 295.00" xmlns="http://www.w3.org/2000/svg" xmlns:xlink="http://www.w3.org/1999/xlink">
<g id="graph0" class="graph" transform="scale(1 1) rotate(0) translate(4 291)">
<title>dependencies</title>
<polygon fill="white" stroke="transparent" points="-4,4 -4,-291 1401,-291 1401,4 -4,4"/>
<text text-anchor="start" x="677.51" y="-42.4" font-family="Times-12" font-weight="bold" font-size="14.00">Legend</text>
<polygon fill="#ffffb3" stroke="transparent" points="464.5,-10 464.5,-30 484.5,-30 484.5,-10 464.5,-10"/>
<text text-anchor="start" x="488.13" y="-15.4" font-family="Times-12" font-size="14.00"> &#160;Declarations</text>
<polygon fill="#8dd3c7" stroke="transparent" points="577.5,-10 577.5,-30 597.5,-30 597.5,-10 577.5,-10"/>
<text text-anchor="start" x="601.23" y="-15.4" font-family="Times-12" font-size="14.00"> &#160;Module</text>
<polygon fill="#80b1d3" stroke="transparent" points="663.5,-10 663.5,-30 683.5,-30 683.5,-10 663.5,-10"/>
<text text-anchor="start" x="687.28" y="-15.4" font-family="Times-12" font-size="14.00"> &#160;Bootstrap</text>
<polygon fill="#fdb462" stroke="transparent" points="760.5,-10 760.5,-30 780.5,-30 780.5,-10 760.5,-10"/>
<text text-anchor="start" x="784.17" y="-15.4" font-family="Times-12" font-size="14.00"> &#160;Providers</text>
<polygon fill="#fb8072" stroke="transparent" points="856.5,-10 856.5,-30 876.5,-30 876.5,-10 856.5,-10"/>
<text text-anchor="start" x="880.23" y="-15.4" font-family="Times-12" font-size="14.00"> &#160;Exports</text>
<g id="clust1" class="cluster">
<title>cluster_AppModule</title>
<polygon fill="none" stroke="black" stroke-dasharray="1,5" points="8,-70 8,-271 415,-271 415,-70 8,-70"/>
</g>
<g id="clust3" class="cluster">
<title>cluster_AppModule_imports</title>
<polygon fill="none" stroke="black" points="28,-78 28,-195 407,-195 407,-78 28,-78"/>
</g>
<g id="clust7" class="cluster">
<title>cluster_AssociationModule</title>
<polygon fill="none" stroke="black" stroke-dasharray="1,5" points="423,-211 423,-279 779,-279 779,-211 423,-211"/>
</g>
<g id="clust10" class="cluster">
<title>cluster_AssociationModule_exports</title>
<polygon fill="none" stroke="black" points="627,-219 627,-271 771,-271 771,-219 627,-219"/>
</g>
<g id="clust12" class="cluster">
<title>cluster_AssociationModule_providers</title>
<polygon fill="none" stroke="black" points="431,-219 431,-271 619,-271 619,-219 431,-219"/>
</g>
<g id="clust19" class="cluster">
<title>cluster_GroupModule</title>
<polygon fill="none" stroke="black" stroke-dasharray="1,5" points="787,-211 787,-279 1071,-279 1071,-211 787,-211"/>
</g>
<g id="clust22" class="cluster">
<title>cluster_GroupModule_exports</title>
<polygon fill="none" stroke="black" points="949,-219 949,-271 1063,-271 1063,-219 949,-219"/>
</g>
<g id="clust24" class="cluster">
<title>cluster_GroupModule_providers</title>
<polygon fill="none" stroke="black" points="795,-219 795,-271 941,-271 941,-219 795,-219"/>
</g>
<g id="clust25" class="cluster">
<title>cluster_NatsMessengerModule</title>
<polygon fill="none" stroke="black" stroke-dasharray="1,5" points="423,-135 423,-203 827,-203 827,-135 423,-135"/>
</g>
<g id="clust28" class="cluster">
<title>cluster_NatsMessengerModule_exports</title>
<polygon fill="none" stroke="black" points="655,-143 655,-195 819,-195 819,-143 655,-143"/>
</g>
<g id="clust30" class="cluster">
<title>cluster_NatsMessengerModule_providers</title>
<polygon fill="none" stroke="black" points="431,-143 431,-195 647,-195 647,-143 431,-143"/>
</g>
<g id="clust31" class="cluster">
<title>cluster_RelationModule</title>
<polygon fill="none" stroke="black" stroke-dasharray="1,5" points="1079,-211 1079,-279 1389,-279 1389,-211 1079,-211"/>
</g>
<g id="clust34" class="cluster">
<title>cluster_RelationModule_exports</title>
<polygon fill="none" stroke="black" points="1257,-219 1257,-271 1381,-271 1381,-219 1257,-219"/>
</g>
<g id="clust36" class="cluster">
<title>cluster_RelationModule_providers</title>
<polygon fill="none" stroke="black" points="1087,-219 1087,-271 1249,-271 1249,-219 1087,-219"/>
</g>
<!-- AssociationModule -->
<g id="node1" class="node">
<title>AssociationModule</title>
<polygon fill="#8dd3c7" stroke="black" points="161.65,-187 158.65,-191 137.65,-191 134.65,-187 36.35,-187 36.35,-151 161.65,-151 161.65,-187"/>
<text text-anchor="middle" x="99" y="-164.8" font-family="Times,serif" font-size="14.00">AssociationModule</text>
</g>
<!-- AppModule -->
<g id="node5" class="node">
<title>AppModule</title>
<polygon fill="#8dd3c7" stroke="black" points="204.66,-263 201.66,-267 180.66,-267 177.66,-263 121.34,-263 121.34,-227 204.66,-227 204.66,-263"/>
<text text-anchor="middle" x="163" y="-240.8" font-family="Times,serif" font-size="14.00">AppModule</text>
</g>
<!-- AssociationModule&#45;&gt;AppModule -->
<g id="edge1" class="edge">
<title>AssociationModule&#45;&gt;AppModule</title>
<path fill="none" stroke="black" d="M131.33,-187.01C131.33,-187.01 131.33,-216.85 131.33,-216.85"/>
<polygon fill="black" stroke="black" points="127.83,-216.85 131.33,-226.85 134.83,-216.85 127.83,-216.85"/>
</g>
<!-- AssociationService  -->
<g id="node6" class="node">
<title>AssociationService </title>
<polygon fill="#fb8072" stroke="black" points="762.58,-263 635.42,-263 635.42,-227 762.58,-227 762.58,-263"/>
<text text-anchor="middle" x="699" y="-240.8" font-family="Times,serif" font-size="14.00">AssociationService </text>
</g>
<!-- AssociationModule&#45;&gt;AssociationService  -->
<g id="edge6" class="edge">
<title>AssociationModule&#45;&gt;AssociationService </title>
<path fill="none" stroke="black" stroke-dasharray="5,2" d="M141.5,-187.04C141.5,-200.29 141.5,-216 141.5,-216 141.5,-216 650.82,-216 650.82,-216 650.82,-216 650.82,-217.08 650.82,-217.08"/>
<polygon fill="black" stroke="black" points="647.32,-216.8 650.82,-226.8 654.32,-216.8 647.32,-216.8"/>
</g>
<!-- GroupModule -->
<g id="node2" class="node">
<title>GroupModule</title>
<polygon fill="#8dd3c7" stroke="black" points="274.82,-187 271.82,-191 250.82,-191 247.82,-187 179.18,-187 179.18,-151 274.82,-151 274.82,-187"/>
<text text-anchor="middle" x="227" y="-164.8" font-family="Times,serif" font-size="14.00">GroupModule</text>
</g>
<!-- GroupModule&#45;&gt;AppModule -->
<g id="edge2" class="edge">
<title>GroupModule&#45;&gt;AppModule</title>
<path fill="none" stroke="black" d="M192.08,-187.01C192.08,-187.01 192.08,-216.85 192.08,-216.85"/>
<polygon fill="black" stroke="black" points="188.58,-216.85 192.08,-226.85 195.58,-216.85 188.58,-216.85"/>
</g>
<!-- GroupService  -->
<g id="node8" class="node">
<title>GroupService </title>
<polygon fill="#fb8072" stroke="black" points="1054.75,-263 957.25,-263 957.25,-227 1054.75,-227 1054.75,-263"/>
<text text-anchor="middle" x="1006" y="-240.8" font-family="Times,serif" font-size="14.00">GroupService </text>
</g>
<!-- GroupModule&#45;&gt;GroupService  -->
<g id="edge9" class="edge">
<title>GroupModule&#45;&gt;GroupService </title>
<path fill="none" stroke="black" stroke-dasharray="5,2" d="M228.1,-187.42C228.1,-196.28 228.1,-205 228.1,-205 228.1,-205 1006,-205 1006,-205 1006,-205 1006,-216.87 1006,-216.87"/>
<polygon fill="black" stroke="black" points="1002.5,-216.87 1006,-226.87 1009.5,-216.87 1002.5,-216.87"/>
</g>
<!-- NatsMessengerModule -->
<g id="node3" class="node">
<title>NatsMessengerModule</title>
<polygon fill="#8dd3c7" stroke="black" points="348.84,-122 345.84,-126 324.84,-126 321.84,-122 203.16,-122 203.16,-86 348.84,-86 348.84,-122"/>
<text text-anchor="middle" x="276" y="-99.8" font-family="Times,serif" font-size="14.00">NatsMessengerModule</text>
</g>
<!-- NatsMessengerModule&#45;&gt;AssociationModule -->
<g id="edge5" class="edge">
<title>NatsMessengerModule&#45;&gt;AssociationModule</title>
<path fill="none" stroke="black" d="M202.99,-98C154.23,-98 99,-98 99,-98 99,-98 99,-140.72 99,-140.72"/>
<polygon fill="black" stroke="black" points="95.5,-140.72 99,-150.72 102.5,-140.72 95.5,-140.72"/>
</g>
<!-- NatsMessengerModule&#45;&gt;GroupModule -->
<g id="edge8" class="edge">
<title>NatsMessengerModule&#45;&gt;GroupModule</title>
<path fill="none" stroke="black" d="M238.87,-122.11C238.87,-122.11 238.87,-140.99 238.87,-140.99"/>
<polygon fill="black" stroke="black" points="235.37,-140.99 238.87,-150.99 242.37,-140.99 235.37,-140.99"/>
</g>
<!-- RelationModule -->
<g id="node4" class="node">
<title>RelationModule</title>
<polygon fill="#8dd3c7" stroke="black" points="399.49,-187 396.49,-191 375.49,-191 372.49,-187 292.51,-187 292.51,-151 399.49,-151 399.49,-187"/>
<text text-anchor="middle" x="346" y="-164.8" font-family="Times,serif" font-size="14.00">RelationModule</text>
</g>
<!-- NatsMessengerModule&#45;&gt;RelationModule -->
<g id="edge13" class="edge">
<title>NatsMessengerModule&#45;&gt;RelationModule</title>
<path fill="none" stroke="black" d="M320.71,-122.11C320.71,-122.11 320.71,-140.99 320.71,-140.99"/>
<polygon fill="black" stroke="black" points="317.21,-140.99 320.71,-150.99 324.21,-140.99 317.21,-140.99"/>
</g>
<!-- NatsMessengerModule&#45;&gt;AppModule -->
<g id="edge3" class="edge">
<title>NatsMessengerModule&#45;&gt;AppModule</title>
<path fill="none" stroke="black" d="M203.07,-110C184.95,-110 170.58,-110 170.58,-110 170.58,-110 170.58,-216.79 170.58,-216.79"/>
<polygon fill="black" stroke="black" points="167.08,-216.79 170.58,-226.79 174.08,-216.79 167.08,-216.79"/>
</g>
<!-- NatsMessengerService  -->
<g id="node10" class="node">
<title>NatsMessengerService </title>
<polygon fill="#fb8072" stroke="black" points="810.77,-187 663.23,-187 663.23,-151 810.77,-151 810.77,-187"/>
<text text-anchor="middle" x="737" y="-164.8" font-family="Times,serif" font-size="14.00">NatsMessengerService </text>
</g>
<!-- NatsMessengerModule&#45;&gt;NatsMessengerService  -->
<g id="edge11" class="edge">
<title>NatsMessengerModule&#45;&gt;NatsMessengerService </title>
<path fill="none" stroke="black" stroke-dasharray="5,2" d="M349.05,-98C479.04,-98 737,-98 737,-98 737,-98 737,-140.72 737,-140.72"/>
<polygon fill="black" stroke="black" points="733.5,-140.72 737,-150.72 740.5,-140.72 733.5,-140.72"/>
</g>
<!-- RelationModule&#45;&gt;AppModule -->
<g id="edge4" class="edge">
<title>RelationModule&#45;&gt;AppModule</title>
<path fill="none" stroke="black" d="M372.75,-187.01C372.75,-209.49 372.75,-245 372.75,-245 372.75,-245 214.69,-245 214.69,-245"/>
<polygon fill="black" stroke="black" points="214.69,-241.5 204.69,-245 214.69,-248.5 214.69,-241.5"/>
</g>
<!-- RelationService  -->
<g id="node12" class="node">
<title>RelationService </title>
<polygon fill="#fb8072" stroke="black" points="1373.42,-263 1264.58,-263 1264.58,-227 1373.42,-227 1373.42,-263"/>
<text text-anchor="middle" x="1319" y="-240.8" font-family="Times,serif" font-size="14.00">RelationService </text>
</g>
<!-- RelationModule&#45;&gt;RelationService  -->
<g id="edge14" class="edge">
<title>RelationModule&#45;&gt;RelationService </title>
<path fill="none" stroke="black" stroke-dasharray="5,2" d="M319.25,-187.19C319.25,-190.54 319.25,-193 319.25,-193 319.25,-193 1319,-193 1319,-193 1319,-193 1319,-216.81 1319,-216.81"/>
<polygon fill="black" stroke="black" points="1315.5,-216.81 1319,-226.81 1322.5,-216.81 1315.5,-216.81"/>
</g>
<!-- AssociationService -->
<g id="node7" class="node">
<title>AssociationService</title>
<ellipse fill="#fdb462" stroke="black" cx="525" cy="-245" rx="85.67" ry="18"/>
<text text-anchor="middle" x="525" y="-240.8" font-family="Times,serif" font-size="14.00">AssociationService</text>
</g>
<!-- AssociationService&#45;&gt;AssociationModule -->
<g id="edge7" class="edge">
<title>AssociationService&#45;&gt;AssociationModule</title>
<path fill="none" stroke="black" d="M525.03,-226.88C525.03,-224.03 525.03,-222 525.03,-222 525.03,-222 151.66,-222 151.66,-222 151.66,-222 151.66,-197.24 151.66,-197.24"/>
<polygon fill="black" stroke="black" points="155.16,-197.24 151.66,-187.24 148.16,-197.24 155.16,-197.24"/>
</g>
<!-- GroupService -->
<g id="node9" class="node">
<title>GroupService</title>
<ellipse fill="#fdb462" stroke="black" cx="868" cy="-245" rx="64.83" ry="18"/>
<text text-anchor="middle" x="868" y="-240.8" font-family="Times,serif" font-size="14.00">GroupService</text>
</g>
<!-- GroupService&#45;&gt;GroupModule -->
<g id="edge10" class="edge">
<title>GroupService&#45;&gt;GroupModule</title>
<path fill="none" stroke="black" d="M807.11,-238.9C807.11,-228.88 807.11,-210 807.11,-210 807.11,-210 251.38,-210 251.38,-210 251.38,-210 251.38,-197.1 251.38,-197.1"/>
<polygon fill="black" stroke="black" points="254.88,-197.1 251.38,-187.1 247.88,-197.1 254.88,-197.1"/>
</g>
<!-- NatsMessengerService -->
<g id="node11" class="node">
<title>NatsMessengerService</title>
<ellipse fill="#fdb462" stroke="black" cx="539" cy="-169" rx="99.53" ry="18"/>
<text text-anchor="middle" x="539" y="-164.8" font-family="Times,serif" font-size="14.00">NatsMessengerService</text>
</g>
<!-- NatsMessengerService&#45;&gt;NatsMessengerModule -->
<g id="edge12" class="edge">
<title>NatsMessengerService&#45;&gt;NatsMessengerModule</title>
<path fill="none" stroke="black" d="M539,-150.98C539,-133.63 539,-110 539,-110 539,-110 358.91,-110 358.91,-110"/>
<polygon fill="black" stroke="black" points="358.91,-106.5 348.91,-110 358.91,-113.5 358.91,-106.5"/>
</g>
<!-- RelationService -->
<g id="node13" class="node">
<title>RelationService</title>
<ellipse fill="#fdb462" stroke="black" cx="1168" cy="-245" rx="72.93" ry="18"/>
<text text-anchor="middle" x="1168" y="-240.8" font-family="Times,serif" font-size="14.00">RelationService</text>
</g>
<!-- RelationService&#45;&gt;RelationModule -->
<g id="edge15" class="edge">
<title>RelationService&#45;&gt;RelationModule</title>
<path fill="none" stroke="black" d="M1168,-226.82C1168,-213.96 1168,-199 1168,-199 1168,-199 346,-199 346,-199 346,-199 346,-197.14 346,-197.14"/>
<polygon fill="black" stroke="black" points="349.5,-197.14 346,-187.14 342.5,-197.14 349.5,-197.14"/>
</g>
</g>
</svg>
