<?xml version="1.0" encoding="UTF-8" standalone="no"?>
<!DOCTYPE svg PUBLIC "-//W3C//DTD SVG 1.1//EN"
 "http://www.w3.org/Graphics/SVG/1.1/DTD/svg11.dtd">
<!-- Generated by graphviz version 2.47.0 (20210316.0004)
 -->
<!-- Title: dependencies Pages: 1 -->
<svg width="1367pt" height="306pt"
 viewBox="0.00 0.00 1367.00 306.00" xmlns="http://www.w3.org/2000/svg" xmlns:xlink="http://www.w3.org/1999/xlink">
<g id="graph0" class="graph" transform="scale(1 1) rotate(0) translate(4 302)">
<title>dependencies</title>
<polygon fill="white" stroke="transparent" points="-4,4 -4,-302 1363,-302 1363,4 -4,4"/>
<text text-anchor="start" x="658.51" y="-42.4" font-family="Times-12" font-weight="bold" font-size="14.00">Legend</text>
<polygon fill="#ffffb3" stroke="transparent" points="445.5,-10 445.5,-30 465.5,-30 465.5,-10 445.5,-10"/>
<text text-anchor="start" x="469.13" y="-15.4" font-family="Times-12" font-size="14.00"> &#160;Declarations</text>
<polygon fill="#8dd3c7" stroke="transparent" points="558.5,-10 558.5,-30 578.5,-30 578.5,-10 558.5,-10"/>
<text text-anchor="start" x="582.23" y="-15.4" font-family="Times-12" font-size="14.00"> &#160;Module</text>
<polygon fill="#80b1d3" stroke="transparent" points="644.5,-10 644.5,-30 664.5,-30 664.5,-10 644.5,-10"/>
<text text-anchor="start" x="668.28" y="-15.4" font-family="Times-12" font-size="14.00"> &#160;Bootstrap</text>
<polygon fill="#fdb462" stroke="transparent" points="741.5,-10 741.5,-30 761.5,-30 761.5,-10 741.5,-10"/>
<text text-anchor="start" x="765.17" y="-15.4" font-family="Times-12" font-size="14.00"> &#160;Providers</text>
<polygon fill="#fb8072" stroke="transparent" points="837.5,-10 837.5,-30 857.5,-30 857.5,-10 837.5,-10"/>
<text text-anchor="start" x="861.23" y="-15.4" font-family="Times-12" font-size="14.00"> &#160;Exports</text>
<g id="clust1" class="cluster">
<title>cluster_AppModule</title>
<polygon fill="none" stroke="black" stroke-dasharray="1,5" points="703,-70 703,-282 939,-282 939,-70 703,-70"/>
</g>
<g id="clust3" class="cluster">
<title>cluster_AppModule_imports</title>
<polygon fill="none" stroke="black" points="711,-78 711,-206 919,-206 919,-78 711,-78"/>
</g>
<g id="clust7" class="cluster">
<title>cluster_AuthModule</title>
<polygon fill="none" stroke="black" stroke-dasharray="1,5" points="8,-70 8,-138 695,-138 695,-70 8,-70"/>
</g>
<g id="clust10" class="cluster">
<title>cluster_AuthModule_exports</title>
<polygon fill="none" stroke="black" points="581,-78 581,-130 687,-130 687,-78 581,-78"/>
</g>
<g id="clust12" class="cluster">
<title>cluster_AuthModule_providers</title>
<polygon fill="none" stroke="black" points="16,-78 16,-130 573,-130 573,-78 16,-78"/>
</g>
<g id="clust19" class="cluster">
<title>cluster_NatsMessengerModule</title>
<polygon fill="none" stroke="black" stroke-dasharray="1,5" points="947,-146 947,-214 1351,-214 1351,-146 947,-146"/>
</g>
<g id="clust22" class="cluster">
<title>cluster_NatsMessengerModule_exports</title>
<polygon fill="none" stroke="black" points="1179,-154 1179,-206 1343,-206 1343,-154 1179,-154"/>
</g>
<g id="clust24" class="cluster">
<title>cluster_NatsMessengerModule_providers</title>
<polygon fill="none" stroke="black" points="955,-154 955,-206 1171,-206 1171,-154 955,-154"/>
</g>
<g id="clust25" class="cluster">
<title>cluster_UserModule</title>
<polygon fill="none" stroke="black" stroke-dasharray="1,5" points="947,-222 947,-290 1207,-290 1207,-222 947,-222"/>
</g>
<g id="clust28" class="cluster">
<title>cluster_UserModule_exports</title>
<polygon fill="none" stroke="black" points="1095,-230 1095,-282 1199,-282 1199,-230 1095,-230"/>
</g>
<g id="clust30" class="cluster">
<title>cluster_UserModule_providers</title>
<polygon fill="none" stroke="black" points="955,-230 955,-282 1087,-282 1087,-230 955,-230"/>
</g>
<!-- AuthModule -->
<g id="node1" class="node">
<title>AuthModule</title>
<polygon fill="#8dd3c7" stroke="black" points="806.55,-198 803.55,-202 782.55,-202 779.55,-198 719.45,-198 719.45,-162 806.55,-162 806.55,-198"/>
<text text-anchor="middle" x="763" y="-175.8" font-family="Times,serif" font-size="14.00">AuthModule</text>
</g>
<!-- AppModule -->
<g id="node4" class="node">
<title>AppModule</title>
<polygon fill="#8dd3c7" stroke="black" points="909.66,-274 906.66,-278 885.66,-278 882.66,-274 826.34,-274 826.34,-238 909.66,-238 909.66,-274"/>
<text text-anchor="middle" x="868" y="-251.8" font-family="Times,serif" font-size="14.00">AppModule</text>
</g>
<!-- AuthModule&#45;&gt;AppModule -->
<g id="edge1" class="edge">
<title>AuthModule&#45;&gt;AppModule</title>
<path fill="none" stroke="black" d="M763,-198.2C763,-222.36 763,-262 763,-262 763,-262 816.2,-262 816.2,-262"/>
<polygon fill="black" stroke="black" points="816.2,-265.5 826.2,-262 816.2,-258.5 816.2,-265.5"/>
</g>
<!-- AuthService  -->
<g id="node5" class="node">
<title>AuthService </title>
<polygon fill="#fb8072" stroke="black" points="678.98,-122 589.02,-122 589.02,-86 678.98,-86 678.98,-122"/>
<text text-anchor="middle" x="634" y="-99.8" font-family="Times,serif" font-size="14.00">AuthService </text>
</g>
<!-- AuthModule&#45;&gt;AuthService  -->
<g id="edge5" class="edge">
<title>AuthModule&#45;&gt;AuthService </title>
<path fill="none" stroke="black" stroke-dasharray="5,2" d="M742.15,-161.99C742.15,-139.51 742.15,-104 742.15,-104 742.15,-104 688.93,-104 688.93,-104"/>
<polygon fill="black" stroke="black" points="688.93,-100.5 678.93,-104 688.93,-107.5 688.93,-100.5"/>
</g>
<!-- NatsMessengerModule -->
<g id="node2" class="node">
<title>NatsMessengerModule</title>
<polygon fill="#8dd3c7" stroke="black" points="910.84,-122 907.84,-126 886.84,-126 883.84,-122 765.16,-122 765.16,-86 910.84,-86 910.84,-122"/>
<text text-anchor="middle" x="838" y="-99.8" font-family="Times,serif" font-size="14.00">NatsMessengerModule</text>
</g>
<!-- NatsMessengerModule&#45;&gt;AuthModule -->
<g id="edge4" class="edge">
<title>NatsMessengerModule&#45;&gt;AuthModule</title>
<path fill="none" stroke="black" d="M785.93,-122.01C785.93,-122.01 785.93,-151.85 785.93,-151.85"/>
<polygon fill="black" stroke="black" points="782.43,-151.85 785.93,-161.85 789.43,-151.85 782.43,-151.85"/>
</g>
<!-- UserModule -->
<g id="node3" class="node">
<title>UserModule</title>
<polygon fill="#8dd3c7" stroke="black" points="910.98,-198 907.98,-202 886.98,-202 883.98,-198 825.02,-198 825.02,-162 910.98,-162 910.98,-198"/>
<text text-anchor="middle" x="868" y="-175.8" font-family="Times,serif" font-size="14.00">UserModule</text>
</g>
<!-- NatsMessengerModule&#45;&gt;UserModule -->
<g id="edge11" class="edge">
<title>NatsMessengerModule&#45;&gt;UserModule</title>
<path fill="none" stroke="black" d="M867.97,-122.01C867.97,-122.01 867.97,-151.85 867.97,-151.85"/>
<polygon fill="black" stroke="black" points="864.47,-151.85 867.97,-161.85 871.47,-151.85 864.47,-151.85"/>
</g>
<!-- NatsMessengerModule&#45;&gt;AppModule -->
<g id="edge2" class="edge">
<title>NatsMessengerModule&#45;&gt;AppModule</title>
<path fill="none" stroke="black" d="M815.89,-122.2C815.89,-161.33 815.89,-250 815.89,-250 815.89,-250 816.92,-250 816.92,-250"/>
<polygon fill="black" stroke="black" points="816.19,-253.5 826.19,-250 816.19,-246.5 816.19,-253.5"/>
</g>
<!-- NatsMessengerService  -->
<g id="node9" class="node">
<title>NatsMessengerService </title>
<polygon fill="#fb8072" stroke="black" points="1334.77,-198 1187.23,-198 1187.23,-162 1334.77,-162 1334.77,-198"/>
<text text-anchor="middle" x="1261" y="-175.8" font-family="Times,serif" font-size="14.00">NatsMessengerService </text>
</g>
<!-- NatsMessengerModule&#45;&gt;NatsMessengerService  -->
<g id="edge9" class="edge">
<title>NatsMessengerModule&#45;&gt;NatsMessengerService </title>
<path fill="none" stroke="black" stroke-dasharray="5,2" d="M911.2,-98C1032.27,-98 1261,-98 1261,-98 1261,-98 1261,-151.8 1261,-151.8"/>
<polygon fill="black" stroke="black" points="1257.5,-151.8 1261,-161.8 1264.5,-151.8 1257.5,-151.8"/>
</g>
<!-- UserModule&#45;&gt;AppModule -->
<g id="edge3" class="edge">
<title>UserModule&#45;&gt;AppModule</title>
<path fill="none" stroke="black" d="M854.06,-198.01C854.06,-198.01 854.06,-227.85 854.06,-227.85"/>
<polygon fill="black" stroke="black" points="850.56,-227.85 854.06,-237.85 857.56,-227.85 850.56,-227.85"/>
</g>
<!-- UserService  -->
<g id="node11" class="node">
<title>UserService </title>
<polygon fill="#fb8072" stroke="black" points="1190.9,-274 1103.1,-274 1103.1,-238 1190.9,-238 1190.9,-274"/>
<text text-anchor="middle" x="1147" y="-251.8" font-family="Times,serif" font-size="14.00">UserService </text>
</g>
<!-- UserModule&#45;&gt;UserService  -->
<g id="edge12" class="edge">
<title>UserModule&#45;&gt;UserService </title>
<path fill="none" stroke="black" stroke-dasharray="5,2" d="M881.94,-198.11C881.94,-207.9 881.94,-218 881.94,-218 881.94,-218 1132.78,-218 1132.78,-218 1132.78,-218 1132.78,-227.89 1132.78,-227.89"/>
<polygon fill="black" stroke="black" points="1129.28,-227.89 1132.78,-237.89 1136.28,-227.89 1129.28,-227.89"/>
</g>
<!-- AccessTokenStrategy -->
<g id="node6" class="node">
<title>AccessTokenStrategy</title>
<ellipse fill="#fdb462" stroke="black" cx="256" cy="-104" rx="95.46" ry="18"/>
<text text-anchor="middle" x="256" y="-99.8" font-family="Times,serif" font-size="14.00">AccessTokenStrategy</text>
</g>
<!-- AccessTokenStrategy&#45;&gt;AuthModule -->
<g id="edge6" class="edge">
<title>AccessTokenStrategy&#45;&gt;AuthModule</title>
<path fill="none" stroke="black" d="M256,-122.01C256,-144.49 256,-180 256,-180 256,-180 709.33,-180 709.33,-180"/>
<polygon fill="black" stroke="black" points="709.33,-183.5 719.33,-180 709.33,-176.5 709.33,-183.5"/>
</g>
<!-- AuthService -->
<g id="node7" class="node">
<title>AuthService</title>
<ellipse fill="#fdb462" stroke="black" cx="83" cy="-104" rx="59.11" ry="18"/>
<text text-anchor="middle" x="83" y="-99.8" font-family="Times,serif" font-size="14.00">AuthService</text>
</g>
<!-- AuthService&#45;&gt;AuthModule -->
<g id="edge7" class="edge">
<title>AuthService&#45;&gt;AuthModule</title>
<path fill="none" stroke="black" d="M83,-122.03C83,-146.98 83,-189 83,-189 83,-189 709.43,-189 709.43,-189"/>
<polygon fill="black" stroke="black" points="709.43,-192.5 719.43,-189 709.43,-185.5 709.43,-192.5"/>
</g>
<!-- RefreshTokenStrategy -->
<g id="node8" class="node">
<title>RefreshTokenStrategy</title>
<ellipse fill="#fdb462" stroke="black" cx="467" cy="-104" rx="97.83" ry="18"/>
<text text-anchor="middle" x="467" y="-99.8" font-family="Times,serif" font-size="14.00">RefreshTokenStrategy</text>
</g>
<!-- RefreshTokenStrategy&#45;&gt;AuthModule -->
<g id="edge8" class="edge">
<title>RefreshTokenStrategy&#45;&gt;AuthModule</title>
<path fill="none" stroke="black" d="M467,-122.31C467,-142.15 467,-171 467,-171 467,-171 709.32,-171 709.32,-171"/>
<polygon fill="black" stroke="black" points="709.32,-174.5 719.32,-171 709.32,-167.5 709.32,-174.5"/>
</g>
<!-- NatsMessengerService -->
<g id="node10" class="node">
<title>NatsMessengerService</title>
<ellipse fill="#fdb462" stroke="black" cx="1063" cy="-180" rx="99.53" ry="18"/>
<text text-anchor="middle" x="1063" y="-175.8" font-family="Times,serif" font-size="14.00">NatsMessengerService</text>
</g>
<!-- NatsMessengerService&#45;&gt;NatsMessengerModule -->
<g id="edge10" class="edge">
<title>NatsMessengerService&#45;&gt;NatsMessengerModule</title>
<path fill="none" stroke="black" d="M1063,-161.97C1063,-141.23 1063,-110 1063,-110 1063,-110 921.05,-110 921.05,-110"/>
<polygon fill="black" stroke="black" points="921.05,-106.5 911.05,-110 921.05,-113.5 921.05,-106.5"/>
</g>
<!-- UserService -->
<g id="node12" class="node">
<title>UserService</title>
<ellipse fill="#fdb462" stroke="black" cx="1021" cy="-256" rx="58.44" ry="18"/>
<text text-anchor="middle" x="1021" y="-251.8" font-family="Times,serif" font-size="14.00">UserService</text>
</g>
<!-- UserService&#45;&gt;UserModule -->
<g id="edge13" class="edge">
<title>UserService&#45;&gt;UserModule</title>
<path fill="none" stroke="black" d="M962.58,-256C948.22,-256 936.88,-256 936.88,-256 936.88,-256 936.88,-180 936.88,-180 936.88,-180 921.23,-180 921.23,-180"/>
<polygon fill="black" stroke="black" points="921.23,-176.5 911.23,-180 921.23,-183.5 921.23,-176.5"/>
</g>
</g>
</svg>
