<?xml version="1.0" encoding="UTF-8" standalone="no"?>
<!DOCTYPE svg PUBLIC "-//W3C//DTD SVG 1.1//EN"
 "http://www.w3.org/Graphics/SVG/1.1/DTD/svg11.dtd">
<!-- Generated by graphviz version 2.47.0 (20210316.0004)
 -->
<!-- Title: dependencies Pages: 1 -->
<svg width="1070pt" height="211pt"
 viewBox="0.00 0.00 1070.00 211.00" xmlns="http://www.w3.org/2000/svg" xmlns:xlink="http://www.w3.org/1999/xlink">
<g id="graph0" class="graph" transform="scale(1 1) rotate(0) translate(4 207)">
<title>dependencies</title>
<polygon fill="white" stroke="transparent" points="-4,4 -4,-207 1066,-207 1066,4 -4,4"/>
<text text-anchor="start" x="510.01" y="-42.4" font-family="Times-12" font-weight="bold" font-size="14.00">Legend</text>
<polygon fill="#ffffb3" stroke="transparent" points="297,-10 297,-30 317,-30 317,-10 297,-10"/>
<text text-anchor="start" x="320.63" y="-15.4" font-family="Times-12" font-size="14.00"> &#160;Declarations</text>
<polygon fill="#8dd3c7" stroke="transparent" points="410,-10 410,-30 430,-30 430,-10 410,-10"/>
<text text-anchor="start" x="433.73" y="-15.4" font-family="Times-12" font-size="14.00"> &#160;Module</text>
<polygon fill="#80b1d3" stroke="transparent" points="496,-10 496,-30 516,-30 516,-10 496,-10"/>
<text text-anchor="start" x="519.78" y="-15.4" font-family="Times-12" font-size="14.00"> &#160;Bootstrap</text>
<polygon fill="#fdb462" stroke="transparent" points="593,-10 593,-30 613,-30 613,-10 593,-10"/>
<text text-anchor="start" x="616.67" y="-15.4" font-family="Times-12" font-size="14.00"> &#160;Providers</text>
<polygon fill="#fb8072" stroke="transparent" points="689,-10 689,-30 709,-30 709,-10 689,-10"/>
<text text-anchor="start" x="712.73" y="-15.4" font-family="Times-12" font-size="14.00"> &#160;Exports</text>
<g id="clust1" class="cluster">
<title>cluster_AppModule</title>
<polygon fill="none" stroke="black" stroke-dasharray="1,5" points="8,-70 8,-195 1054,-195 1054,-70 8,-70"/>
</g>
<g id="clust6" class="cluster">
<title>cluster_AppModule_providers</title>
<polygon fill="none" stroke="black" points="126,-78 126,-130 1046,-130 1046,-78 126,-78"/>
</g>
<g id="clust3" class="cluster">
<title>cluster_AppModule_imports</title>
<polygon fill="none" stroke="black" points="16,-78 16,-130 118,-130 118,-78 16,-78"/>
</g>
<!-- FilesModule -->
<g id="node1" class="node">
<title>FilesModule</title>
<polygon fill="#8dd3c7" stroke="black" points="110.27,-122 107.27,-126 86.27,-126 83.27,-122 23.73,-122 23.73,-86 110.27,-86 110.27,-122"/>
<text text-anchor="middle" x="67" y="-99.8" font-family="Times,serif" font-size="14.00">FilesModule</text>
</g>
<!-- AppModule -->
<g id="node2" class="node">
<title>AppModule</title>
<polygon fill="#8dd3c7" stroke="black" points="482.66,-187 479.66,-191 458.66,-191 455.66,-187 399.34,-187 399.34,-151 482.66,-151 482.66,-187"/>
<text text-anchor="middle" x="441" y="-164.8" font-family="Times,serif" font-size="14.00">AppModule</text>
</g>
<!-- FilesModule&#45;&gt;AppModule -->
<g id="edge1" class="edge">
<title>FilesModule&#45;&gt;AppModule</title>
<path fill="none" stroke="black" d="M67,-122.29C67,-144.21 67,-178 67,-178 67,-178 389.19,-178 389.19,-178"/>
<polygon fill="black" stroke="black" points="389.19,-181.5 399.19,-178 389.19,-174.5 389.19,-181.5"/>
</g>
<!-- AvatarWorker -->
<g id="node3" class="node">
<title>AvatarWorker</title>
<ellipse fill="#fdb462" stroke="black" cx="971" cy="-104" rx="66.59" ry="18"/>
<text text-anchor="middle" x="971" y="-99.8" font-family="Times,serif" font-size="14.00">AvatarWorker</text>
</g>
<!-- AvatarWorker&#45;&gt;AppModule -->
<g id="edge2" class="edge">
<title>AvatarWorker&#45;&gt;AppModule</title>
<path fill="none" stroke="black" d="M971,-122.29C971,-144.21 971,-178 971,-178 971,-178 493.03,-178 493.03,-178"/>
<polygon fill="black" stroke="black" points="493.03,-174.5 483.03,-178 493.03,-181.5 493.03,-174.5"/>
</g>
<!-- FileCreatedListener -->
<g id="node4" class="node">
<title>FileCreatedListener</title>
<ellipse fill="#fdb462" stroke="black" cx="798" cy="-104" rx="87.95" ry="18"/>
<text text-anchor="middle" x="798" y="-99.8" font-family="Times,serif" font-size="14.00">FileCreatedListener</text>
</g>
<!-- FileCreatedListener&#45;&gt;AppModule -->
<g id="edge3" class="edge">
<title>FileCreatedListener&#45;&gt;AppModule</title>
<path fill="none" stroke="black" d="M798,-122.11C798,-141.34 798,-169 798,-169 798,-169 493,-169 493,-169"/>
<polygon fill="black" stroke="black" points="493,-165.5 483,-169 493,-172.5 493,-165.5"/>
</g>
<!-- FileDeletedListener -->
<g id="node5" class="node">
<title>FileDeletedListener</title>
<ellipse fill="#fdb462" stroke="black" cx="605" cy="-104" rx="87.95" ry="18"/>
<text text-anchor="middle" x="605" y="-99.8" font-family="Times,serif" font-size="14.00">FileDeletedListener</text>
</g>
<!-- FileDeletedListener&#45;&gt;AppModule -->
<g id="edge4" class="edge">
<title>FileDeletedListener&#45;&gt;AppModule</title>
<path fill="none" stroke="black" d="M605,-122.03C605,-138.4 605,-160 605,-160 605,-160 492.81,-160 492.81,-160"/>
<polygon fill="black" stroke="black" points="492.81,-156.5 482.81,-160 492.81,-163.5 492.81,-156.5"/>
</g>
<!-- FilesService -->
<g id="node6" class="node">
<title>FilesService</title>
<ellipse fill="#fdb462" stroke="black" cx="441" cy="-104" rx="58.54" ry="18"/>
<text text-anchor="middle" x="441" y="-99.8" font-family="Times,serif" font-size="14.00">FilesService</text>
</g>
<!-- FilesService&#45;&gt;AppModule -->
<g id="edge5" class="edge">
<title>FilesService&#45;&gt;AppModule</title>
<path fill="none" stroke="black" d="M441,-122.11C441,-122.11 441,-140.99 441,-140.99"/>
<polygon fill="black" stroke="black" points="437.5,-140.99 441,-150.99 444.5,-140.99 437.5,-140.99"/>
</g>
<!-- FsUtil -->
<g id="node7" class="node">
<title>FsUtil</title>
<ellipse fill="#fdb462" stroke="black" cx="329" cy="-104" rx="35.37" ry="18"/>
<text text-anchor="middle" x="329" y="-99.8" font-family="Times,serif" font-size="14.00">FsUtil</text>
</g>
<!-- FsUtil&#45;&gt;AppModule -->
<g id="edge6" class="edge">
<title>FsUtil&#45;&gt;AppModule</title>
<path fill="none" stroke="black" d="M329,-122.03C329,-138.4 329,-160 329,-160 329,-160 389.3,-160 389.3,-160"/>
<polygon fill="black" stroke="black" points="389.3,-163.5 399.3,-160 389.3,-156.5 389.3,-163.5"/>
</g>
<!-- ProductWorker -->
<g id="node8" class="node">
<title>ProductWorker</title>
<ellipse fill="#fdb462" stroke="black" cx="205" cy="-104" rx="70.63" ry="18"/>
<text text-anchor="middle" x="205" y="-99.8" font-family="Times,serif" font-size="14.00">ProductWorker</text>
</g>
<!-- ProductWorker&#45;&gt;AppModule -->
<g id="edge7" class="edge">
<title>ProductWorker&#45;&gt;AppModule</title>
<path fill="none" stroke="black" d="M205,-122.11C205,-141.34 205,-169 205,-169 205,-169 389.08,-169 389.08,-169"/>
<polygon fill="black" stroke="black" points="389.08,-172.5 399.08,-169 389.08,-165.5 389.08,-172.5"/>
</g>
</g>
</svg>
