<?xml version="1.0" encoding="UTF-8" standalone="no"?>
<!DOCTYPE svg PUBLIC "-//W3C//DTD SVG 1.1//EN"
 "http://www.w3.org/Graphics/SVG/1.1/DTD/svg11.dtd">
<!-- Generated by graphviz version 2.47.0 (20210316.0004)
 -->
<!-- Title: dependencies Pages: 1 -->
<svg width="767pt" height="284pt"
 viewBox="0.00 0.00 767.00 284.00" xmlns="http://www.w3.org/2000/svg" xmlns:xlink="http://www.w3.org/1999/xlink">
<g id="graph0" class="graph" transform="scale(1 1) rotate(0) translate(4 280)">
<title>dependencies</title>
<polygon fill="white" stroke="transparent" points="-4,4 -4,-280 763,-280 763,4 -4,4"/>
<text text-anchor="start" x="358.51" y="-42.4" font-family="Times-12" font-weight="bold" font-size="14.00">Legend</text>
<polygon fill="#ffffb3" stroke="transparent" points="145.5,-10 145.5,-30 165.5,-30 165.5,-10 145.5,-10"/>
<text text-anchor="start" x="169.13" y="-15.4" font-family="Times-12" font-size="14.00"> &#160;Declarations</text>
<polygon fill="#8dd3c7" stroke="transparent" points="258.5,-10 258.5,-30 278.5,-30 278.5,-10 258.5,-10"/>
<text text-anchor="start" x="282.23" y="-15.4" font-family="Times-12" font-size="14.00"> &#160;Module</text>
<polygon fill="#80b1d3" stroke="transparent" points="344.5,-10 344.5,-30 364.5,-30 364.5,-10 344.5,-10"/>
<text text-anchor="start" x="368.28" y="-15.4" font-family="Times-12" font-size="14.00"> &#160;Bootstrap</text>
<polygon fill="#fdb462" stroke="transparent" points="441.5,-10 441.5,-30 461.5,-30 461.5,-10 441.5,-10"/>
<text text-anchor="start" x="465.17" y="-15.4" font-family="Times-12" font-size="14.00"> &#160;Providers</text>
<polygon fill="#fb8072" stroke="transparent" points="537.5,-10 537.5,-30 557.5,-30 557.5,-10 537.5,-10"/>
<text text-anchor="start" x="561.23" y="-15.4" font-family="Times-12" font-size="14.00"> &#160;Exports</text>
<g id="clust1" class="cluster">
<title>cluster_AuthModule</title>
<polygon fill="none" stroke="black" stroke-dasharray="1,5" points="8,-70 8,-268 751,-268 751,-70 8,-70"/>
</g>
<g id="clust3" class="cluster">
<title>cluster_AuthModule_imports</title>
<polygon fill="none" stroke="black" points="581,-78 581,-130 743,-130 743,-78 581,-78"/>
</g>
<g id="clust4" class="cluster">
<title>cluster_AuthModule_exports</title>
<polygon fill="none" stroke="black" points="330,-208 330,-260 436,-260 436,-208 330,-208"/>
</g>
<g id="clust6" class="cluster">
<title>cluster_AuthModule_providers</title>
<polygon fill="none" stroke="black" points="16,-78 16,-130 573,-130 573,-78 16,-78"/>
</g>
<!-- NatsMessengerModule -->
<g id="node1" class="node">
<title>NatsMessengerModule</title>
<polygon fill="#8dd3c7" stroke="black" points="734.84,-122 731.84,-126 710.84,-126 707.84,-122 589.16,-122 589.16,-86 734.84,-86 734.84,-122"/>
<text text-anchor="middle" x="662" y="-99.8" font-family="Times,serif" font-size="14.00">NatsMessengerModule</text>
</g>
<!-- AuthModule -->
<g id="node2" class="node">
<title>AuthModule</title>
<polygon fill="#8dd3c7" stroke="black" points="426.55,-187 423.55,-191 402.55,-191 399.55,-187 339.45,-187 339.45,-151 426.55,-151 426.55,-187"/>
<text text-anchor="middle" x="383" y="-164.8" font-family="Times,serif" font-size="14.00">AuthModule</text>
</g>
<!-- NatsMessengerModule&#45;&gt;AuthModule -->
<g id="edge1" class="edge">
<title>NatsMessengerModule&#45;&gt;AuthModule</title>
<path fill="none" stroke="black" d="M662,-122.11C662,-141.34 662,-169 662,-169 662,-169 436.59,-169 436.59,-169"/>
<polygon fill="black" stroke="black" points="436.59,-165.5 426.59,-169 436.59,-172.5 436.59,-165.5"/>
</g>
<!-- AuthService  -->
<g id="node3" class="node">
<title>AuthService </title>
<polygon fill="#fb8072" stroke="black" points="427.98,-252 338.02,-252 338.02,-216 427.98,-216 427.98,-252"/>
<text text-anchor="middle" x="383" y="-229.8" font-family="Times,serif" font-size="14.00">AuthService </text>
</g>
<!-- AuthModule&#45;&gt;AuthService  -->
<g id="edge2" class="edge">
<title>AuthModule&#45;&gt;AuthService </title>
<path fill="none" stroke="black" stroke-dasharray="5,2" d="M383,-187.11C383,-187.11 383,-205.99 383,-205.99"/>
<polygon fill="black" stroke="black" points="379.5,-205.99 383,-215.99 386.5,-205.99 379.5,-205.99"/>
</g>
<!-- AccessTokenStrategy -->
<g id="node4" class="node">
<title>AccessTokenStrategy</title>
<ellipse fill="#fdb462" stroke="black" cx="470" cy="-104" rx="95.46" ry="18"/>
<text text-anchor="middle" x="470" y="-99.8" font-family="Times,serif" font-size="14.00">AccessTokenStrategy</text>
</g>
<!-- AccessTokenStrategy&#45;&gt;AuthModule -->
<g id="edge3" class="edge">
<title>AccessTokenStrategy&#45;&gt;AuthModule</title>
<path fill="none" stroke="black" d="M400.77,-116.53C400.77,-116.53 400.77,-140.85 400.77,-140.85"/>
<polygon fill="black" stroke="black" points="397.27,-140.85 400.77,-150.85 404.27,-140.85 397.27,-140.85"/>
</g>
<!-- AuthService -->
<g id="node5" class="node">
<title>AuthService</title>
<ellipse fill="#fdb462" stroke="black" cx="297" cy="-104" rx="59.11" ry="18"/>
<text text-anchor="middle" x="297" y="-99.8" font-family="Times,serif" font-size="14.00">AuthService</text>
</g>
<!-- AuthService&#45;&gt;AuthModule -->
<g id="edge4" class="edge">
<title>AuthService&#45;&gt;AuthModule</title>
<path fill="none" stroke="black" d="M347.77,-113.31C347.77,-113.31 347.77,-140.85 347.77,-140.85"/>
<polygon fill="black" stroke="black" points="344.27,-140.85 347.77,-150.85 351.27,-140.85 344.27,-140.85"/>
</g>
<!-- RefreshTokenStrategy -->
<g id="node6" class="node">
<title>RefreshTokenStrategy</title>
<ellipse fill="#fdb462" stroke="black" cx="122" cy="-104" rx="97.83" ry="18"/>
<text text-anchor="middle" x="122" y="-99.8" font-family="Times,serif" font-size="14.00">RefreshTokenStrategy</text>
</g>
<!-- RefreshTokenStrategy&#45;&gt;AuthModule -->
<g id="edge5" class="edge">
<title>RefreshTokenStrategy&#45;&gt;AuthModule</title>
<path fill="none" stroke="black" d="M122,-122.11C122,-141.34 122,-169 122,-169 122,-169 329.31,-169 329.31,-169"/>
<polygon fill="black" stroke="black" points="329.31,-172.5 339.31,-169 329.31,-165.5 329.31,-172.5"/>
</g>
</g>
</svg>
