<?xml version="1.0" encoding="UTF-8" standalone="no"?>
<!DOCTYPE svg PUBLIC "-//W3C//DTD SVG 1.1//EN"
 "http://www.w3.org/Graphics/SVG/1.1/DTD/svg11.dtd">
<!-- Generated by graphviz version 2.47.0 (20210316.0004)
 -->
<!-- Title: dependencies Pages: 1 -->
<svg width="504pt" height="284pt"
 viewBox="0.00 0.00 504.00 284.00" xmlns="http://www.w3.org/2000/svg" xmlns:xlink="http://www.w3.org/1999/xlink">
<g id="graph0" class="graph" transform="scale(1 1) rotate(0) translate(4 280)">
<title>dependencies</title>
<polygon fill="white" stroke="transparent" points="-4,4 -4,-280 500,-280 500,4 -4,4"/>
<text text-anchor="start" x="227.01" y="-42.4" font-family="Times-12" font-weight="bold" font-size="14.00">Legend</text>
<polygon fill="#ffffb3" stroke="transparent" points="14,-10 14,-30 34,-30 34,-10 14,-10"/>
<text text-anchor="start" x="37.63" y="-15.4" font-family="Times-12" font-size="14.00"> &#160;Declarations</text>
<polygon fill="#8dd3c7" stroke="transparent" points="127,-10 127,-30 147,-30 147,-10 127,-10"/>
<text text-anchor="start" x="150.73" y="-15.4" font-family="Times-12" font-size="14.00"> &#160;Module</text>
<polygon fill="#80b1d3" stroke="transparent" points="213,-10 213,-30 233,-30 233,-10 213,-10"/>
<text text-anchor="start" x="236.78" y="-15.4" font-family="Times-12" font-size="14.00"> &#160;Bootstrap</text>
<polygon fill="#fdb462" stroke="transparent" points="310,-10 310,-30 330,-30 330,-10 310,-10"/>
<text text-anchor="start" x="333.67" y="-15.4" font-family="Times-12" font-size="14.00"> &#160;Providers</text>
<polygon fill="#fb8072" stroke="transparent" points="406,-10 406,-30 426,-30 426,-10 406,-10"/>
<text text-anchor="start" x="429.73" y="-15.4" font-family="Times-12" font-size="14.00"> &#160;Exports</text>
<g id="clust1" class="cluster">
<title>cluster_GroupModule</title>
<polygon fill="none" stroke="black" stroke-dasharray="1,5" points="82,-70 82,-268 414,-268 414,-70 82,-70"/>
</g>
<g id="clust3" class="cluster">
<title>cluster_GroupModule_imports</title>
<polygon fill="none" stroke="black" points="244,-78 244,-130 406,-130 406,-78 244,-78"/>
</g>
<g id="clust4" class="cluster">
<title>cluster_GroupModule_exports</title>
<polygon fill="none" stroke="black" points="187,-208 187,-260 301,-260 301,-208 187,-208"/>
</g>
<g id="clust6" class="cluster">
<title>cluster_GroupModule_providers</title>
<polygon fill="none" stroke="black" points="90,-78 90,-130 236,-130 236,-78 90,-78"/>
</g>
<!-- NatsMessengerModule -->
<g id="node1" class="node">
<title>NatsMessengerModule</title>
<polygon fill="#8dd3c7" stroke="black" points="397.84,-122 394.84,-126 373.84,-126 370.84,-122 252.16,-122 252.16,-86 397.84,-86 397.84,-122"/>
<text text-anchor="middle" x="325" y="-99.8" font-family="Times,serif" font-size="14.00">NatsMessengerModule</text>
</g>
<!-- GroupModule -->
<g id="node2" class="node">
<title>GroupModule</title>
<polygon fill="#8dd3c7" stroke="black" points="291.82,-187 288.82,-191 267.82,-191 264.82,-187 196.18,-187 196.18,-151 291.82,-151 291.82,-187"/>
<text text-anchor="middle" x="244" y="-164.8" font-family="Times,serif" font-size="14.00">GroupModule</text>
</g>
<!-- NatsMessengerModule&#45;&gt;GroupModule -->
<g id="edge1" class="edge">
<title>NatsMessengerModule&#45;&gt;GroupModule</title>
<path fill="none" stroke="black" d="M271.87,-122.11C271.87,-122.11 271.87,-140.99 271.87,-140.99"/>
<polygon fill="black" stroke="black" points="268.37,-140.99 271.87,-150.99 275.37,-140.99 268.37,-140.99"/>
</g>
<!-- GroupService  -->
<g id="node3" class="node">
<title>GroupService </title>
<polygon fill="#fb8072" stroke="black" points="292.75,-252 195.25,-252 195.25,-216 292.75,-216 292.75,-252"/>
<text text-anchor="middle" x="244" y="-229.8" font-family="Times,serif" font-size="14.00">GroupService </text>
</g>
<!-- GroupModule&#45;&gt;GroupService  -->
<g id="edge2" class="edge">
<title>GroupModule&#45;&gt;GroupService </title>
<path fill="none" stroke="black" stroke-dasharray="5,2" d="M244,-187.11C244,-187.11 244,-205.99 244,-205.99"/>
<polygon fill="black" stroke="black" points="240.5,-205.99 244,-215.99 247.5,-205.99 240.5,-205.99"/>
</g>
<!-- GroupService -->
<g id="node4" class="node">
<title>GroupService</title>
<ellipse fill="#fdb462" stroke="black" cx="163" cy="-104" rx="64.83" ry="18"/>
<text text-anchor="middle" x="163" y="-99.8" font-family="Times,serif" font-size="14.00">GroupService</text>
</g>
<!-- GroupService&#45;&gt;GroupModule -->
<g id="edge3" class="edge">
<title>GroupService&#45;&gt;GroupModule</title>
<path fill="none" stroke="black" d="M212,-115.92C212,-115.92 212,-140.77 212,-140.77"/>
<polygon fill="black" stroke="black" points="208.5,-140.77 212,-150.77 215.5,-140.77 208.5,-140.77"/>
</g>
</g>
</svg>
