<?xml version="1.0" encoding="UTF-8" standalone="no"?>
<!DOCTYPE svg PUBLIC "-//W3C//DTD SVG 1.1//EN"
 "http://www.w3.org/Graphics/SVG/1.1/DTD/svg11.dtd">
<!-- Generated by graphviz version 2.47.0 (20210316.0004)
 -->
<!-- Title: dependencies Pages: 1 -->
<svg width="504pt" height="284pt"
 viewBox="0.00 0.00 504.00 284.00" xmlns="http://www.w3.org/2000/svg" xmlns:xlink="http://www.w3.org/1999/xlink">
<g id="graph0" class="graph" transform="scale(1 1) rotate(0) translate(4 280)">
<title>dependencies</title>
<polygon fill="white" stroke="transparent" points="-4,4 -4,-280 500,-280 500,4 -4,4"/>
<text text-anchor="start" x="227.01" y="-42.4" font-family="Times-12" font-weight="bold" font-size="14.00">Legend</text>
<polygon fill="#ffffb3" stroke="transparent" points="14,-10 14,-30 34,-30 34,-10 14,-10"/>
<text text-anchor="start" x="37.63" y="-15.4" font-family="Times-12" font-size="14.00"> &#160;Declarations</text>
<polygon fill="#8dd3c7" stroke="transparent" points="127,-10 127,-30 147,-30 147,-10 127,-10"/>
<text text-anchor="start" x="150.73" y="-15.4" font-family="Times-12" font-size="14.00"> &#160;Module</text>
<polygon fill="#80b1d3" stroke="transparent" points="213,-10 213,-30 233,-30 233,-10 213,-10"/>
<text text-anchor="start" x="236.78" y="-15.4" font-family="Times-12" font-size="14.00"> &#160;Bootstrap</text>
<polygon fill="#fdb462" stroke="transparent" points="310,-10 310,-30 330,-30 330,-10 310,-10"/>
<text text-anchor="start" x="333.67" y="-15.4" font-family="Times-12" font-size="14.00"> &#160;Providers</text>
<polygon fill="#fb8072" stroke="transparent" points="406,-10 406,-30 426,-30 426,-10 406,-10"/>
<text text-anchor="start" x="429.73" y="-15.4" font-family="Times-12" font-size="14.00"> &#160;Exports</text>
<g id="clust1" class="cluster">
<title>cluster_EventModule</title>
<polygon fill="none" stroke="black" stroke-dasharray="1,5" points="84,-70 84,-268 412,-268 412,-70 84,-70"/>
</g>
<g id="clust4" class="cluster">
<title>cluster_EventModule_exports</title>
<polygon fill="none" stroke="black" points="188,-208 188,-260 298,-260 298,-208 188,-208"/>
</g>
<g id="clust3" class="cluster">
<title>cluster_EventModule_imports</title>
<polygon fill="none" stroke="black" points="242,-78 242,-130 404,-130 404,-78 242,-78"/>
</g>
<g id="clust6" class="cluster">
<title>cluster_EventModule_providers</title>
<polygon fill="none" stroke="black" points="92,-78 92,-130 234,-130 234,-78 92,-78"/>
</g>
<!-- NatsMessengerModule -->
<g id="node1" class="node">
<title>NatsMessengerModule</title>
<polygon fill="#8dd3c7" stroke="black" points="395.84,-122 392.84,-126 371.84,-126 368.84,-122 250.16,-122 250.16,-86 395.84,-86 395.84,-122"/>
<text text-anchor="middle" x="323" y="-99.8" font-family="Times,serif" font-size="14.00">NatsMessengerModule</text>
</g>
<!-- EventModule -->
<g id="node2" class="node">
<title>EventModule</title>
<polygon fill="#8dd3c7" stroke="black" points="289.21,-187 286.21,-191 265.21,-191 262.21,-187 196.79,-187 196.79,-151 289.21,-151 289.21,-187"/>
<text text-anchor="middle" x="243" y="-164.8" font-family="Times,serif" font-size="14.00">EventModule</text>
</g>
<!-- NatsMessengerModule&#45;&gt;EventModule -->
<g id="edge1" class="edge">
<title>NatsMessengerModule&#45;&gt;EventModule</title>
<path fill="none" stroke="black" d="M269.59,-122.11C269.59,-122.11 269.59,-140.99 269.59,-140.99"/>
<polygon fill="black" stroke="black" points="266.09,-140.99 269.59,-150.99 273.09,-140.99 266.09,-140.99"/>
</g>
<!-- EventService  -->
<g id="node3" class="node">
<title>EventService </title>
<polygon fill="#fb8072" stroke="black" points="290.14,-252 195.86,-252 195.86,-216 290.14,-216 290.14,-252"/>
<text text-anchor="middle" x="243" y="-229.8" font-family="Times,serif" font-size="14.00">EventService </text>
</g>
<!-- EventModule&#45;&gt;EventService  -->
<g id="edge2" class="edge">
<title>EventModule&#45;&gt;EventService </title>
<path fill="none" stroke="black" stroke-dasharray="5,2" d="M243,-187.11C243,-187.11 243,-205.99 243,-205.99"/>
<polygon fill="black" stroke="black" points="239.5,-205.99 243,-215.99 246.5,-205.99 239.5,-205.99"/>
</g>
<!-- EventService -->
<g id="node4" class="node">
<title>EventService</title>
<ellipse fill="#fdb462" stroke="black" cx="163" cy="-104" rx="62.54" ry="18"/>
<text text-anchor="middle" x="163" y="-99.8" font-family="Times,serif" font-size="14.00">EventService</text>
</g>
<!-- EventService&#45;&gt;EventModule -->
<g id="edge3" class="edge">
<title>EventService&#45;&gt;EventModule</title>
<path fill="none" stroke="black" d="M211.21,-115.62C211.21,-115.62 211.21,-140.85 211.21,-140.85"/>
<polygon fill="black" stroke="black" points="207.71,-140.85 211.21,-150.85 214.71,-140.85 207.71,-140.85"/>
</g>
</g>
</svg>
