<?xml version="1.0" encoding="UTF-8" standalone="no"?>
<!DOCTYPE svg PUBLIC "-//W3C//DTD SVG 1.1//EN"
 "http://www.w3.org/Graphics/SVG/1.1/DTD/svg11.dtd">
<!-- Generated by graphviz version 2.47.0 (20210316.0004)
 -->
<!-- Title: dependencies Pages: 1 -->
<svg width="504pt" height="284pt"
 viewBox="0.00 0.00 504.00 284.00" xmlns="http://www.w3.org/2000/svg" xmlns:xlink="http://www.w3.org/1999/xlink">
<g id="graph0" class="graph" transform="scale(1 1) rotate(0) translate(4 280)">
<title>dependencies</title>
<polygon fill="white" stroke="transparent" points="-4,4 -4,-280 500,-280 500,4 -4,4"/>
<text text-anchor="start" x="227.01" y="-42.4" font-family="Times-12" font-weight="bold" font-size="14.00">Legend</text>
<polygon fill="#ffffb3" stroke="transparent" points="14,-10 14,-30 34,-30 34,-10 14,-10"/>
<text text-anchor="start" x="37.63" y="-15.4" font-family="Times-12" font-size="14.00"> &#160;Declarations</text>
<polygon fill="#8dd3c7" stroke="transparent" points="127,-10 127,-30 147,-30 147,-10 127,-10"/>
<text text-anchor="start" x="150.73" y="-15.4" font-family="Times-12" font-size="14.00"> &#160;Module</text>
<polygon fill="#80b1d3" stroke="transparent" points="213,-10 213,-30 233,-30 233,-10 213,-10"/>
<text text-anchor="start" x="236.78" y="-15.4" font-family="Times-12" font-size="14.00"> &#160;Bootstrap</text>
<polygon fill="#fdb462" stroke="transparent" points="310,-10 310,-30 330,-30 330,-10 310,-10"/>
<text text-anchor="start" x="333.67" y="-15.4" font-family="Times-12" font-size="14.00"> &#160;Providers</text>
<polygon fill="#fb8072" stroke="transparent" points="406,-10 406,-30 426,-30 426,-10 406,-10"/>
<text text-anchor="start" x="429.73" y="-15.4" font-family="Times-12" font-size="14.00"> &#160;Exports</text>
<g id="clust1" class="cluster">
<title>cluster_RequestModule</title>
<polygon fill="none" stroke="black" stroke-dasharray="1,5" points="76,-70 76,-268 420,-268 420,-70 76,-70"/>
</g>
<g id="clust4" class="cluster">
<title>cluster_RequestModule_exports</title>
<polygon fill="none" stroke="black" points="188,-208 188,-260 310,-260 310,-208 188,-208"/>
</g>
<g id="clust6" class="cluster">
<title>cluster_RequestModule_providers</title>
<polygon fill="none" stroke="black" points="254,-78 254,-130 412,-130 412,-78 254,-78"/>
</g>
<g id="clust3" class="cluster">
<title>cluster_RequestModule_imports</title>
<polygon fill="none" stroke="black" points="84,-78 84,-130 246,-130 246,-78 84,-78"/>
</g>
<!-- NatsMessengerModule -->
<g id="node1" class="node">
<title>NatsMessengerModule</title>
<polygon fill="#8dd3c7" stroke="black" points="237.84,-122 234.84,-126 213.84,-126 210.84,-122 92.16,-122 92.16,-86 237.84,-86 237.84,-122"/>
<text text-anchor="middle" x="165" y="-99.8" font-family="Times,serif" font-size="14.00">NatsMessengerModule</text>
</g>
<!-- RequestModule -->
<g id="node2" class="node">
<title>RequestModule</title>
<polygon fill="#8dd3c7" stroke="black" points="301.15,-187 298.15,-191 277.15,-191 274.15,-187 196.85,-187 196.85,-151 301.15,-151 301.15,-187"/>
<text text-anchor="middle" x="249" y="-164.8" font-family="Times,serif" font-size="14.00">RequestModule</text>
</g>
<!-- NatsMessengerModule&#45;&gt;RequestModule -->
<g id="edge1" class="edge">
<title>NatsMessengerModule&#45;&gt;RequestModule</title>
<path fill="none" stroke="black" d="M217.3,-122.11C217.3,-122.11 217.3,-140.99 217.3,-140.99"/>
<polygon fill="black" stroke="black" points="213.8,-140.99 217.3,-150.99 220.8,-140.99 213.8,-140.99"/>
</g>
<!-- RequestService  -->
<g id="node3" class="node">
<title>RequestService </title>
<polygon fill="#fb8072" stroke="black" points="302.08,-252 195.92,-252 195.92,-216 302.08,-216 302.08,-252"/>
<text text-anchor="middle" x="249" y="-229.8" font-family="Times,serif" font-size="14.00">RequestService </text>
</g>
<!-- RequestModule&#45;&gt;RequestService  -->
<g id="edge2" class="edge">
<title>RequestModule&#45;&gt;RequestService </title>
<path fill="none" stroke="black" stroke-dasharray="5,2" d="M249,-187.11C249,-187.11 249,-205.99 249,-205.99"/>
<polygon fill="black" stroke="black" points="245.5,-205.99 249,-215.99 252.5,-205.99 245.5,-205.99"/>
</g>
<!-- RequestService -->
<g id="node4" class="node">
<title>RequestService</title>
<ellipse fill="#fdb462" stroke="black" cx="333" cy="-104" rx="71.2" ry="18"/>
<text text-anchor="middle" x="333" y="-99.8" font-family="Times,serif" font-size="14.00">RequestService</text>
</g>
<!-- RequestService&#45;&gt;RequestModule -->
<g id="edge3" class="edge">
<title>RequestService&#45;&gt;RequestModule</title>
<path fill="none" stroke="black" d="M281.61,-116.53C281.61,-116.53 281.61,-140.85 281.61,-140.85"/>
<polygon fill="black" stroke="black" points="278.11,-140.85 281.61,-150.85 285.11,-140.85 278.11,-140.85"/>
</g>
</g>
</svg>
